<svg width="32" height="32" enable-background="new 0 0 595.275 311.111" version="1.1" viewBox="0 0 32 32" xml:space="preserve" xmlns="http://www.w3.org/2000/svg"><rect y="-5.2588e-6" width="32" height="32" rx="5" ry="5" fill="#31363b"/><path d="m4.5545 27.971c-0.52914-0.27919-0.90114-0.68222-1.1639-1.261-0.35119-0.77354-0.38659-1.3943-0.39036-6.8451-0.00469-6.6977 0.042996-6.9655 1.4004-7.8724 0.38172-0.25502 0.85108-0.81446 1.043-1.2432 0.38601-0.86221 0.69302-1.0444 1.7597-1.0444 0.61193 0 17.301-4.5057 17.776-4.799 0.09056-0.055973 0.16466-0.21935 0.16466-0.36308 0-0.44779 0.71469-0.9339 1.3731-0.9339 0.94602 0 1.4168 0.60066 1.2742 1.6256-0.12835 0.92233-1.3265 1.3085-2.1879 0.7051-0.41368-0.28975-1.0046-0.14169-8.6894 2.1773-7.5118 2.2668-8.2403 2.525-8.1864 2.9017 0.058302 0.40713 0.20008 0.41503 9.2391 0.51507 8.8816 0.0983 9.1986 0.11528 9.7534 0.52244 1.234 0.90557 1.2844 1.2134 1.2799 7.8087-0.0041 5.4532-0.03908 6.0713-0.3908 6.8461-0.2738 0.60308-0.626 0.97378-1.2066 1.27-0.79752 0.40687-1.1108 0.41808-11.445 0.40934-10.258-0.008635-10.652-0.023178-11.403-0.41932zm18.151-2.8385c5.6396-2.5476 3.9317-10.83-2.2352-10.84-2.2539-0.0036-4.2093 1.2562-5.1511 3.3186-0.61519 1.3472-0.59797 3.4671 0.03806 4.6918 0.80734 1.5544 2.0131 2.6133 3.4861 3.0613 1.016 0.30905 2.917 0.19479 3.862-0.23212zm-3.7591-1.2979c-0.56384-0.25818-0.44948-0.27983 1.524-0.28843 1.9485-0.0085 2.0895 0.01597 1.6256 0.2811-0.64355 0.36789-2.3534 0.37188-3.1495 0.0074zm-2.0929-1.7752c-0.13411-0.13412-0.24384-0.31699-0.24384-0.4064 0-0.08941 1.7373-0.16257 3.8607-0.16257 2.1234 0 3.8607 0.03826 3.8607 0.08497 0 0.04676-0.0555 0.22962-0.12335 0.4064-0.10584 0.27585-0.61867 0.32142-3.6169 0.32142-2.4463 0-3.5666-0.07309-3.7374-0.24384zm-0.51477-1.7204c-0.07451-0.0745-0.13546-0.3031-0.13546-0.508 0-0.34942 0.26477-0.37253 4.2671-0.37253h4.2671v1.016h-4.1317c-2.2724 0-4.1926-0.06095-4.2671-0.13546zm0.27093-2.0115c0-0.06322 0.09466-0.29182 0.21035-0.508 0.19556-0.36541 0.45826-0.39304 3.7374-0.39304 3.6322 0 3.7737 0.0311 3.7737 0.82942 0 0.10676-1.6516 0.18658-3.8607 0.18658-2.1234 0-3.8607-0.05173-3.8607-0.11496zm2.0904-2.2404c0.9449-0.51239 2.3679-0.55823 3.2943-0.10612l0.81278 0.39664-2.3368 0.0084c-2.197 0.0078-2.3029-0.01006-1.7704-0.29883zm-10.107 5.9206c0.89715-0.89717 0.44589-2.3508-0.82913-2.6708-0.63-0.15812-1.4618 0.35671-1.7343 1.0734-0.58766 1.5457 1.3856 2.7753 2.5634 1.5974zm0.028481-5.023c0.58509-0.54968 0.60444-1.3648 0.049115-2.0708-0.51243-0.65147-1.5379-0.72255-2.2385-0.15518-0.59043 0.47811-0.63855 1.648-0.092615 2.2513 0.51421 0.56821 1.6638 0.55546 2.282-0.0253z" fill="#3daee9" stroke-width=".40635"/></svg>
