<svg width="128" height="128" enable-background="new 0 0 595.275 311.111" version="1.1" viewBox="0 0 128 128" xml:space="preserve" xmlns="http://www.w3.org/2000/svg"><rect y="-7.6294e-6" width="128" height="128" rx="20" ry="20" fill="#31363b" stroke-width="4"/><path d="m18.218 111.88c-2.1166-1.1168-3.6046-2.7289-4.6556-5.0441-1.4048-3.0942-1.5464-5.577-1.5614-27.38-0.01876-26.791 0.17198-27.862 5.6018-31.489 1.5269-1.0201 3.4043-3.2578 4.1721-4.9728 1.5441-3.4488 2.7721-4.1777 7.0388-4.1777 2.4477 0 69.204-18.023 71.103-19.196 0.36224-0.22389 0.65864-0.87742 0.65864-1.4523 0-1.7912 2.8588-3.7356 5.4922-3.7356 3.7841 0 5.6674 2.4027 5.0969 6.5024-0.5134 3.6893-5.3061 5.2339-8.7517 2.8204-1.6547-1.159-4.0183-0.56677-34.758 8.7093-30.047 9.0671-32.961 10.1-32.746 11.607 0.23321 1.6285 0.80031 1.6601 36.957 2.0603 35.526 0.3932 36.794 0.46112 39.014 2.0898 4.9359 3.6223 5.1377 4.8537 5.1195 31.235-0.0164 21.813-0.15632 24.285-1.5632 27.384-1.0952 2.4123-2.504 3.8951-4.8265 5.08-3.1901 1.6275-4.4431 1.6723-45.78 1.6374-41.031-0.0345-42.608-0.0927-45.611-1.6773zm72.604-11.354c22.558-10.19 15.727-43.319-8.9406-43.358-9.0155-0.0144-16.837 5.0249-20.604 13.275-2.4608 5.389-2.3919 13.868 0.15224 18.767 3.2294 6.2176 8.0524 10.453 13.944 12.245 4.0638 1.2362 11.668 0.77915 15.448-0.92849zm-15.036-5.1915c-2.2554-1.0327-1.7979-1.1193 6.0959-1.1537 7.7939-0.034 8.3579 0.06388 6.5023 1.1244-2.5742 1.4716-9.4137 1.4875-12.598 0.0296zm-8.3716-7.1007c-0.53644-0.53649-0.97535-1.268-0.97535-1.6256 0-0.35764 6.9493-0.65026 15.443-0.65026 8.4936 0 15.443 0.15304 15.443 0.33988 0 0.18704-0.222 0.91847-0.49341 1.6256-0.42336 1.1034-2.4747 1.2857-14.468 1.2857-9.7851 0-14.267-0.29236-14.95-0.97536zm-2.0591-6.8817c-0.29804-0.298-0.54184-1.2124-0.54184-2.032 0-1.3977 1.0591-1.4901 17.068-1.4901h17.068v4.064h-16.527c-9.0896 0-16.77-0.2438-17.068-0.54183zm1.0837-8.0459c0-0.25288 0.37864-1.1673 0.84138-2.032 0.78224-1.4617 1.8331-1.5722 14.95-1.5722 14.529 0 15.095 0.1244 15.095 3.3177 0 0.42704-6.6065 0.74632-15.443 0.74632-8.4936 0-15.443-0.20692-15.443-0.45984zm8.3615-8.9618c3.7796-2.0496 9.4715-2.2329 13.177-0.4245l3.2511 1.5865-9.347 0.0336c-8.7881 0.0312-9.2115-0.04024-7.0814-1.1953zm-40.429 23.683c3.5886-3.5887 1.7836-9.403-3.3165-10.683-2.52-0.63248-5.8473 1.4269-6.9372 4.2936-2.3506 6.1827 5.5422 11.101 10.254 6.3895zm0.11392-20.092c2.3404-2.1987 2.4178-5.4593 0.19646-8.2831-2.0497-2.6059-6.1515-2.8902-8.9541-0.62073-2.3617 1.9124-2.5542 6.592-0.37046 9.0051 2.0569 2.2728 6.6552 2.2218 9.128-0.1012z" fill="#3daee9" stroke-width="1.6254"/></svg>
