<svg width="128" height="128" enable-background="new 0 0 595.275 311.111" version="1.1" viewBox="0 0 128 128" xml:space="preserve" xmlns="http://www.w3.org/2000/svg"><rect y="-7.6294e-6" width="128" height="128" rx="20" ry="20" fill="#31363b" stroke-width="4"/><path d="m99.747 14.007c-15.713 2.5323-36.743 5.139-52.413 7.8127-4.1497 2.0247-3.2167 7.238-3.4003 11.021v50.64c-8.745-1.6441-19.409 5.5817-19.872 17.023-0.755 7.123 5.5613 13.323 12.43 13.49 12.298 0.29852 20.709-7.8607 20.842-18.179-0.134-17.329 0.04-34.667 0-51.997 1.9039-0.141 30.74-5.6433 33.333-6.0097v38.943c-7.6427-1.8309-17.413 3.1915-19.835 13.448-1.0225 5.7493 0.91 12.966 6.7437 15.4 11.388 5.233 27.022-5.367 26.386-17.807-0.17668-23.108 0.14468-46.227 0-69.337-0.3-2.173-1.7733-4.6053-4.2167-4.4487z" fill="#3daee9" stroke-width="3.3333"/></svg>
