<svg width="32" height="32" enable-background="new 0 0 595.275 311.111" version="1.1" viewBox="0 0 32 32" xml:space="preserve" xmlns="http://www.w3.org/2000/svg"><rect y="-5.2588e-6" width="32" height="32" rx="5" ry="5" fill="#31363b"/><path d="m24.937 3.5016c-3.9283 0.63308-9.1858 1.2847-13.103 1.9532-1.0374 0.50617-0.80417 1.8095-0.85008 2.7552v12.66c-2.1862-0.41102-4.8522 1.3954-4.9679 4.2557-0.18875 1.7807 1.3903 3.3307 3.1075 3.3724 3.0744 0.07463 5.1772-1.9652 5.2105-4.5447-0.0335-4.3323 0.01-8.6667 0-12.999 0.47597-0.03525 7.685-1.4108 8.3333-1.5024v9.7358c-1.9107-0.45772-4.3532 0.79786-4.9587 3.3621-0.25562 1.4373 0.2275 3.2414 1.6859 3.85 2.847 1.3082 6.7554-1.3417 6.5965-4.4517-0.04417-5.7769 0.03617-11.557 0-17.334-0.075-0.54325-0.44333-1.1513-1.0542-1.1122z" fill="#3daee9" stroke-width=".83333"/></svg>
