<svg width="128" height="128" enable-background="new 0 0 595.275 311.111" version="1.1" viewBox="0 0 128 128" xml:space="preserve" xmlns="http://www.w3.org/2000/svg"><rect y="-7.6294e-6" width="128" height="128" rx="20" ry="20" fill="#31363b" stroke-width="4"/><g transform="matrix(1.5045 0 0 1.5045 6.7344 6.4396)" stroke="#fff" stroke-width="5"><polygon points="6 47.699 21.989 47.699 39.389 62.75 39.389 13.769 22.235 28.606 6 28.606" fill="#fff" stroke-linejoin="round"/><g fill="none" stroke-linecap="round"><path d="m48.128 49.03c1.929-3.096 3.062-6.739 3.062-10.653 0-3.978-1.164-7.674-3.147-10.8"/>
<path d="m55.082 20.537c3.695 4.986 5.884 11.157 5.884 17.84 0 6.621-2.151 12.738-5.788 17.699"/>
<path d="m61.71 62.611c5.267-6.666 8.418-15.08 8.418-24.233 0-9.217-3.192-17.682-8.519-24.368"/>
</g></g><g fill="none" stroke-width="0"><path d="m51.701 92.947-13.271-11.505h-12.079c-8.372 0-12.361-0.28248-12.999-0.92044-1.302-1.302-1.302-32.141 0-33.443 0.6395-0.6395 4.6813-0.92044 13.242-0.92044h12.322l12.795-11.122c7.0374-6.1171 13.435-11.122 14.218-11.122 3.2519 0 3.2632 0.14009 3.2632 40.396 0 37.333-0.047 38.58-1.4836 39.349-0.816 0.43671-1.7652 0.79389-2.1093 0.79374-0.34412-1.6e-4 -6.5978-5.1776-13.897-11.505z"/><path d="m51.701 92.947-13.271-11.505h-12.079c-8.372 0-12.361-0.28248-12.999-0.92044-1.302-1.302-1.302-32.141 0-33.443 0.6395-0.6395 4.6813-0.92044 13.242-0.92044h12.322l12.795-11.122c7.0374-6.1171 13.435-11.122 14.218-11.122 3.2519 0 3.2632 0.14009 3.2632 40.396 0 37.333-0.047 38.58-1.4836 39.349-0.816 0.43671-1.7652 0.79389-2.1093 0.79374-0.34412-1.6e-4 -6.5978-5.1776-13.897-11.505z"/><path d="m51.701 92.947-13.271-11.505h-12.079c-8.372 0-12.361-0.28248-12.999-0.92044-1.302-1.302-1.302-32.141 0-33.443 0.6395-0.6395 4.6813-0.92044 13.242-0.92044h12.322l12.795-11.122c7.0374-6.1171 13.435-11.122 14.218-11.122 3.2519 0 3.2632 0.14009 3.2632 40.396 0 37.333-0.047 38.58-1.4836 39.349-0.816 0.43671-1.7652 0.79389-2.1093 0.79374-0.34412-1.6e-4 -6.5978-5.1776-13.897-11.505z"/></g><g fill="#3daee9"><path d="m51.701 92.947-13.271-11.505h-12.079c-8.372 0-12.361-0.28248-12.999-0.92044-1.302-1.302-1.302-32.141 0-33.443 0.6395-0.6395 4.6813-0.92044 13.242-0.92044h12.322l12.795-11.122c7.0374-6.1171 13.435-11.122 14.218-11.122 3.2519 0 3.2632 0.14009 3.2632 40.396 0 37.333-0.047 38.58-1.4836 39.349-0.816 0.43671-1.7652 0.79389-2.1093 0.79374-0.34412-1.6e-4 -6.5978-5.1776-13.897-11.505z" stroke="#3daee9" stroke-width="2.4"/><path d="m87.974 94.929c-0.53217-0.2144-1.7105-1.2531-2.1497-2.0738-0.64173-1.1991-0.2766-3.1207 1.8589-6.6447 4.4722-7.38 7.0566-13.252 7.0566-22.027 0-8.8232-2.5958-14.374-7.0433-21.674-2.8278-4.6411-2.9363-8.5509-0.3578-9.3693 2.243-0.71188 5.6444 1.2462 7.9752 5.0382 7.9165 12.88 9.5496 30.585 4.1989 44.014-2.2337 5.606-5.525 10.847-7.3495 12.288-1.2936 1.0217-2.679 1.0563-4.1894 0.44787z"/><path d="m77.014 82.823c-1.323-1.323-1.1619-2.5743 1.0398-8.0776 1.4843-3.7103 1.9602-6.2779 1.9602-10.577 0-5.3486-0.69745-7.9191-4.3914-16.185-0.52296-1.1702 1.7847-3.3588 3.5417-3.3588 3.5645 0 7.6678 10.467 7.6678 19.559 0 11.709-5.7782 22.679-9.818 18.639z" stroke="#3daee9" stroke-width="2"/><path d="m96.957 102.77c-1.4609-1.4609-1.1207-2.6387 2.1436-7.4209 6.505-9.5298 9.3993-19.125 9.3993-31.161 0-12.076-2.8917-21.627-9.4617-31.252-3.3896-4.9658-3.5942-7.715-0.64379-8.6514 1.9829-0.62936 3.6673 0.83733 7.3731 6.4203 11.211 16.89 12.738 41.576 3.7312 60.298-4.9982 10.39-9.6007 14.708-12.542 11.767z" stroke="#3daee9" stroke-width="2" style="paint-order:normal"/></g></svg>
