<svg width="32" height="32" enable-background="new 0 0 595.275 311.111" version="1.1" viewBox="0 0 32 32" xml:space="preserve" xmlns="http://www.w3.org/2000/svg"><rect y="-5.2588e-6" width="32" height="32" rx="5" ry="5" fill="#31363b"/><g transform="matrix(.37611 0 0 .37612 1.6836 1.6099)" stroke="#fff" stroke-width="5"><polygon points="21.989 47.699 39.389 62.75 39.389 13.769 22.235 28.606 6 28.606 6 47.699" fill="#fff" stroke-linejoin="round"/><g fill="none" stroke-linecap="round"><path d="m48.128 49.03c1.929-3.096 3.062-6.739 3.062-10.653 0-3.978-1.164-7.674-3.147-10.8"/>
<path d="m55.082 20.537c3.695 4.986 5.884 11.157 5.884 17.84 0 6.621-2.151 12.738-5.788 17.699"/>
<path d="m61.71 62.611c5.267-6.666 8.418-15.08 8.418-24.233 0-9.217-3.192-17.682-8.519-24.368"/>
</g></g><g fill="none" stroke-width="0"><path d="m12.925 23.237-3.3179-2.8763h-3.0197c-2.093 0-3.0904-0.07062-3.2498-0.23011-0.3255-0.3255-0.3255-8.0351 0-8.3606 0.15987-0.15988 1.1703-0.23011 3.3105-0.23011h3.0804l3.1988-2.7805c1.7593-1.5293 3.3588-2.7805 3.5544-2.7805 0.81297 0 0.8158 0.035023 0.8158 10.099 0 9.3332-0.01175 9.645-0.37091 9.8372-0.204 0.10918-0.4413 0.19847-0.52733 0.19844-0.08603-3.9e-5 -1.6495-1.2944-3.4743-2.8764z"/><path d="m12.925 23.237-3.3179-2.8763h-3.0197c-2.093 0-3.0904-0.07062-3.2498-0.23011-0.3255-0.3255-0.3255-8.0351 0-8.3606 0.15987-0.15988 1.1703-0.23011 3.3105-0.23011h3.0804l3.1988-2.7805c1.7593-1.5293 3.3588-2.7805 3.5544-2.7805 0.81297 0 0.8158 0.035023 0.8158 10.099 0 9.3332-0.01175 9.645-0.37091 9.8372-0.204 0.10918-0.4413 0.19847-0.52733 0.19844-0.08603-3.9e-5 -1.6495-1.2944-3.4743-2.8764z"/><path d="m12.925 23.237-3.3179-2.8763h-3.0197c-2.093 0-3.0904-0.07062-3.2498-0.23011-0.3255-0.3255-0.3255-8.0351 0-8.3606 0.15987-0.15988 1.1703-0.23011 3.3105-0.23011h3.0804l3.1988-2.7805c1.7593-1.5293 3.3588-2.7805 3.5544-2.7805 0.81297 0 0.8158 0.035023 0.8158 10.099 0 9.3332-0.01175 9.645-0.37091 9.8372-0.204 0.10918-0.4413 0.19847-0.52733 0.19844-0.08603-3.9e-5 -1.6495-1.2944-3.4743-2.8764z"/></g><g fill="#3daee9"><path d="m12.925 23.237-3.3179-2.8763h-3.0197c-2.093 0-3.0904-0.07062-3.2498-0.23011-0.3255-0.3255-0.3255-8.0351 0-8.3606 0.15987-0.15988 1.1703-0.23011 3.3105-0.23011h3.0804l3.1988-2.7805c1.7593-1.5293 3.3588-2.7805 3.5544-2.7805 0.81297 0 0.8158 0.035023 0.8158 10.099 0 9.3332-0.01175 9.645-0.37091 9.8372-0.204 0.10918-0.4413 0.19847-0.52733 0.19844-0.08603-3.9e-5 -1.6495-1.2944-3.4743-2.8764z" stroke="#3daee9" stroke-width=".6"/><path d="m21.994 23.732c-0.13304-0.0536-0.42762-0.31326-0.53742-0.51844-0.16043-0.29977-0.06915-0.78016 0.46473-1.6612 1.118-1.845 1.7641-3.3131 1.7641-5.5068 0-2.2058-0.64895-3.5935-1.7608-5.4184-0.70694-1.1603-0.73406-2.1377-0.08945-2.3423 0.56074-0.17797 1.4111 0.31156 1.9938 1.2596 1.9791 3.2199 2.3874 7.6462 1.0497 11.003-0.55841 1.4015-1.3813 2.7119-1.8374 3.0721-0.32339 0.25543-0.66976 0.26408-1.0473 0.11197z"/><path d="m19.254 20.706c-0.33074-0.33074-0.29048-0.64357 0.25994-2.0194 0.37109-0.92757 0.49005-1.5695 0.49005-2.6442 0-1.3371-0.17436-1.9798-1.0978-4.0462-0.13074-0.29256 0.44619-0.8397 0.88542-0.8397 0.89112 0 1.9169 2.6167 1.9169 4.8898 0 2.9273-1.4446 5.6697-2.4545 4.6597z" stroke="#3daee9" stroke-width=".5"/><path d="m24.239 25.691c-0.36523-0.36523-0.28018-0.65966 0.5359-1.8552 1.6262-2.3824 2.3498-4.7813 2.3498-7.7902 0-3.019-0.72292-5.4068-2.3654-7.8131-0.8474-1.2414-0.89855-1.9288-0.16095-2.1629 0.49574-0.15734 0.91682 0.20933 1.8433 1.6051 2.8027 4.2224 3.1846 10.394 0.93281 15.075-1.2496 2.5974-2.4002 3.6769-3.1354 2.9416z" stroke="#3daee9" stroke-width=".5" style="paint-order:normal"/></g></svg>
