<svg width="32" height="32" enable-background="new 0 0 595.275 311.111" version="1.1" viewBox="0 0 32 32" xml:space="preserve" xmlns="http://www.w3.org/2000/svg"><rect y="-5.2588e-6" width="32" height="32" rx="5" ry="5" fill="#31363b"/><path d="m3.7714 3.1653c-0.51047 0-0.92143 0.41096-0.92143 0.92143v1.8429c0 0.51047 0.41096 0.92143 0.92143 0.92143h23.957c0.51047 0 0.92143-0.41096 0.92143-0.92143v-1.8429c0-0.51047-0.41096-0.92143-0.92143-0.92143zm0 7.3714c-0.51047 0-0.92143 0.41096-0.92143 0.92143v1.8429c0 0.51047 0.41096 0.92143 0.92143 0.92143h16.586c0.51047 0 0.92143-0.41096 0.92143-0.92143v-1.8429c0-0.51047-0.41096-0.92143-0.92143-0.92143zm0 7.3714c-0.51047 0-0.92143 0.41096-0.92143 0.92143v1.8429c0 0.51047 0.41096 0.92143 0.92143 0.92143h22.114c0.51047 0 0.92143-0.41096 0.92143-0.92143v-1.8429c0-0.51047-0.41096-0.92143-0.92143-0.92143zm0 7.3714c-0.51047 0-0.92143 0.41096-0.92143 0.92143v1.8429c0 0.51047 0.41096 0.92143 0.92143 0.92143h11.057c0.51047 0 0.92143-0.41096 0.92143-0.92143v-1.8429c0-0.51047-0.41096-0.92143-0.92143-0.92143z" fill="#3daee9" stroke-width=".92143"/></svg>
