<svg width="128" height="128" enable-background="new 0 0 595.275 311.111" version="1.1" viewBox="0 0 128 128" xml:space="preserve" xmlns="http://www.w3.org/2000/svg"><rect y="-7.6294e-6" width="128" height="128" rx="20" ry="20" fill="#31363b" stroke-width="4"/><path d="m15.086 12.661c-2.0419 0-3.6857 1.6438-3.6857 3.6857v7.3714c0 2.0419 1.6438 3.6857 3.6857 3.6857h95.829c2.0419 0 3.6857-1.6438 3.6857-3.6857v-7.3714c0-2.0419-1.6438-3.6857-3.6857-3.6857zm0 29.486c-2.0419 0-3.6857 1.6438-3.6857 3.6857v7.3714c0 2.0419 1.6438 3.6857 3.6857 3.6857h66.343c2.0419 0 3.6857-1.6438 3.6857-3.6857v-7.3714c0-2.0419-1.6438-3.6857-3.6857-3.6857zm0 29.486c-2.0419 0-3.6857 1.6438-3.6857 3.6857v7.3714c0 2.0419 1.6438 3.6857 3.6857 3.6857h88.457c2.0419 0 3.6857-1.6438 3.6857-3.6857v-7.3714c0-2.0419-1.6438-3.6857-3.6857-3.6857zm0 29.486c-2.0419 0-3.6857 1.6438-3.6857 3.6857v7.3714c0 2.0419 1.6438 3.6857 3.6857 3.6857h44.229c2.0419 0 3.6857-1.6438 3.6857-3.6857v-7.3714c0-2.0419-1.6438-3.6857-3.6857-3.6857z" fill="#3daee9" stroke-width="3.6857"/></svg>
