<svg width="32" height="32" enable-background="new 0 0 595.275 311.111" version="1.1" viewBox="0 0 32 32" xml:space="preserve" xmlns="http://www.w3.org/2000/svg"><rect y="-5.2588e-6" width="32" height="32" rx="5" ry="5" fill="#31363b"/><g transform="matrix(.029343 0 0 .029343 3.7341 3.7327)" fill="#3daee9">
  <path d="m827.06 263.7c0-35.6-7-70.1-20.7-102.7-13.3-31.4-32.3-59.6-56.5-83.8s-52.4-43.2-83.8-56.5c-32.5-13.8-67.1-20.7-102.7-20.7s-70.1 7-102.7 20.7c-31.399 13.3-59.6 32.3-83.8 56.5s-43.2 52.4-56.5 83.8c-13.8 32.5-20.7 67.1-20.7 102.7 0 44.5 11.2 88.1 32.5 126.9l-315.7 315.4c-7.3 7.3-9.6 18.4-5.1 28.9 0.9 2.2 2.4 4.2 4.1 5.899l70.7 70.7c1.7 1.7 3.7 3.101 5.9 4.101 10.5 4.5 21.6 2.3 28.9-5.101l43.7-43.7 62.9 62.9c1.7 1.7 3.7 3.1 5.899 4.1 10.5 4.5 21.601 2.301 28.9-5.1l69.7-69.7c1.7-1.7 3.1-3.7 4.1-5.899 4.5-10.5 2.3-21.601-5.1-28.9l-61.9-61.9 167.2-167.3c38.7 21.3 82.4 32.5 126.9 32.5 35.6 0 70.1-7 102.7-20.7 31.4-13.3 59.601-32.3 83.801-56.5 24.199-24.199 43.199-52.399 56.5-83.8 13.801-32.7 20.801-67.2 20.801-102.8zm-171.3 92.5c-24.7 24.7-57.601 38.3-92.5 38.3-34.9 0-67.801-13.6-92.5-38.3-24.7-24.7-38.4-57.6-38.4-92.5 0-35 13.6-67.8 38.3-92.5s57.601-38.3 92.5-38.3c34.9 0 67.8 13.6 92.5 38.3s38.3 57.6 38.3 92.5c0.199 34.9-13.401 67.8-38.2 92.5z" fill="#3daee9"/>
</g></svg>
