<svg width="32" height="32" version="1.1" viewBox="0 0 32 32" xmlns="http://www.w3.org/2000/svg">
 <rect x="-3.0712e-7" y=".13559" width="32" height="31.864" ry="4.5521" fill="#31363b" style="paint-order:normal"/>
 <g transform="matrix(.85033 0 0 .85033 -18.937 -1.6887)" fill="#3daee9">
  <path d="m41.246 5.6864c0.94487 0 3.9911 7.9919 4.7555 8.5752 0.76441 0.5833 8.9427 1.1565 9.2346 2.1003 0.29198 0.9438-6.0036 6.4562-6.2956 7.4-0.29198 0.9438 2.3984 9.2899 1.6339 9.8732-0.764 0.583-8.383-4.002-9.328-4.002-0.94487 0-8.5641 4.585-9.3285 4.0017-0.7644-0.584 1.9259-8.9297 1.6339-9.8735-0.292-0.9438-6.5875-6.4562-6.2956-7.4 0.292-0.9438 8.4702-1.517 9.2342-2.1003 0.765-0.5833 3.811-8.5752 4.756-8.5752z" fill="#3daee9"/>
 </g>
</svg>
