<?xml version="1.0" encoding="UTF-8" standalone="no"?>
<svg
   xmlns:dc="http://purl.org/dc/elements/1.1/"
   xmlns:cc="http://creativecommons.org/ns#"
   xmlns:rdf="http://www.w3.org/1999/02/22-rdf-syntax-ns#"
   xmlns:svg="http://www.w3.org/2000/svg"
   xmlns="http://www.w3.org/2000/svg"
   xmlns:sodipodi="http://sodipodi.sourceforge.net/DTD/sodipodi-0.dtd"
   xmlns:inkscape="http://www.inkscape.org/namespaces/inkscape"
   height="32"
   width="32"
   version="1.1"
   id="svg4"
   sodipodi:docname="music.svg"
   inkscape:version="0.92.1 r">
  <metadata
     id="metadata10">
    <rdf:RDF>
      <cc:Work
         rdf:about="">
        <dc:format>image/svg+xml</dc:format>
        <dc:type
           rdf:resource="http://purl.org/dc/dcmitype/StillImage" />
        <dc:title></dc:title>
      </cc:Work>
    </rdf:RDF>
  </metadata>
  <defs
     id="defs8" />
  <sodipodi:namedview
     pagecolor="#ffffff"
     bordercolor="#666666"
     borderopacity="1"
     objecttolerance="10"
     gridtolerance="10"
     guidetolerance="10"
     inkscape:pageopacity="0"
     inkscape:pageshadow="2"
     inkscape:window-width="2560"
     inkscape:window-height="1377"
     id="namedview6"
     showgrid="false"
     inkscape:zoom="7.375"
     inkscape:cx="1.0847458"
     inkscape:cy="16"
     inkscape:window-x="1680"
     inkscape:window-y="0"
     inkscape:window-maximized="1"
     inkscape:current-layer="svg4" />
  <path
     d="M26.72 1.002c-4.714.76-11.023 1.542-15.724 2.344-1.245.607-.965 2.17-1.02 3.306v15.192c-2.624-.493-5.823 1.675-5.962 5.107-.226 2.138 1.67 3.998 3.73 4.048 3.69.09 6.212-2.358 6.252-5.454-.04-5.2.012-10.4 0-15.6.57-.04 9.222-1.692 10-1.802v11.683c-2.293-.55-5.224.958-5.95 4.035-.307 1.725.272 3.89 2.023 4.62 3.415 1.57 8.105-1.61 7.914-5.342-.053-6.933.044-13.868 0-20.8-.09-.653-.532-1.383-1.265-1.336z"
     fill="#FFF"
     id="path2"
     style="fill:#f2f2f2;fill-opacity:1" />
</svg>
