<svg width="128" height="128" enable-background="new 0 0 595.275 311.111" version="1.1" viewBox="0 0 128 128" xml:space="preserve" xmlns="http://www.w3.org/2000/svg"><rect y="-7.6294e-6" width="128" height="128" rx="20" ry="20" fill="#31363b" stroke-width="4"/><path d="m14.554 19.426c-1.4671 0.28413-2.5799 1.7339-2.5536 3.2501v82.644c0 1.7086 1.5749 3.2538 3.25 3.2538h97.5c1.6755-4e-5 3.2499-1.5486 3.25-3.2501v-81.366c-4e-3 -2.5001-1.9648-4.5423-3.8294-4.5278zm4.8746 7.4283 89.142 4.6e-5v37.143l-7.4286-7.4287-22.286 29.715-22.286-22.286-29.714 29.715h-7.4285zm18.572 7.4287c-6.1542 0-11.143 4.9887-11.143 11.143 0 6.1543 4.9886 11.143 11.143 11.143 6.1542 0 11.143-4.9887 11.143-11.143 0-6.1543-4.9886-11.143-11.143-11.143z" color="#000000" fill="#3daee9" stroke-width="3.7143" style="text-indent:0;text-transform:none"/></svg>
