<svg width="32" height="32" enable-background="new 0 0 595.275 311.111" version="1.1" viewBox="0 0 32 32" xml:space="preserve" xmlns="http://www.w3.org/2000/svg"><rect y="-5.2588e-6" width="32" height="32" rx="5" ry="5" fill="#31363b"/><path d="m3.6385 4.8565c-0.36678 0.071033-0.64498 0.43346-0.63839 0.81251v20.661c0 0.42715 0.39371 0.81344 0.8125 0.81344h24.375c0.41887-8e-6 0.81248-0.38715 0.81249-0.81251v-20.342c-9.22e-4 -0.62503-0.49121-1.1356-0.95735-1.1319zm1.2187 1.8571 22.286 1.16e-5v9.2859l-1.8571-1.8572-5.5714 7.4287-5.5714-5.5715-7.4285 7.4287h-1.8571zm4.643 1.8572c-1.5385 0-2.7857 1.2472-2.7857 2.7858 0 1.5386 1.2472 2.7858 2.7857 2.7858 1.5385 0 2.7857-1.2472 2.7857-2.7858 0-1.5386-1.2472-2.7858-2.7857-2.7858z" color="#000000" fill="#3daee9" stroke-width=".92858" style="text-indent:0;text-transform:none"/></svg>
