<?xml version="1.0" encoding="UTF-8" standalone="no"?>
<svg
   xmlns:dc="http://purl.org/dc/elements/1.1/"
   xmlns:cc="http://creativecommons.org/ns#"
   xmlns:rdf="http://www.w3.org/1999/02/22-rdf-syntax-ns#"
   xmlns:svg="http://www.w3.org/2000/svg"
   xmlns="http://www.w3.org/2000/svg"
   xmlns:sodipodi="http://sodipodi.sourceforge.net/DTD/sodipodi-0.dtd"
   xmlns:inkscape="http://www.inkscape.org/namespaces/inkscape"
   height="16"
   width="16"
   version="1.1"
   id="svg6"
   sodipodi:docname="change.svg"
   inkscape:version="0.92.1 r">
  <metadata
     id="metadata12">
    <rdf:RDF>
      <cc:Work
         rdf:about="">
        <dc:format>image/svg+xml</dc:format>
        <dc:type
           rdf:resource="http://purl.org/dc/dcmitype/StillImage" />
        <dc:title></dc:title>
      </cc:Work>
    </rdf:RDF>
  </metadata>
  <defs
     id="defs10" />
  <sodipodi:namedview
     pagecolor="#ffffff"
     bordercolor="#666666"
     borderopacity="1"
     objecttolerance="10"
     gridtolerance="10"
     guidetolerance="10"
     inkscape:pageopacity="0"
     inkscape:pageshadow="2"
     inkscape:window-width="2560"
     inkscape:window-height="1377"
     id="namedview8"
     showgrid="false"
     inkscape:zoom="14.75"
     inkscape:cx="0.54237288"
     inkscape:cy="8"
     inkscape:window-x="1680"
     inkscape:window-y="0"
     inkscape:window-maximized="1"
     inkscape:current-layer="svg6" />
  <path
     d="m7.9375 0c-3.1175 0.023214-6.0756 1.876-7.3438 4.9375l2.7812 1.1563c1.0568-2.5513 3.98-3.7756 6.5312-2.7188 0.8628 0.3573 1.5738 0.9274 2.0938 1.625l-2 2h6v-6l-1.875 1.875c-0.802-0.9616-1.825-1.7688-3.063-2.2812-1.02-0.4227-2.0853-0.60149-3.1245-0.59375z"
     id="path2"
     style="fill:#f2f2f2;fill-opacity:1" />
  <path
     d="m0 9.5v6l2.0938-2.094c0.7676 0.843 1.7205 1.535 2.8437 2 4.082 1.691 8.7775-0.262 10.468-4.344l-2.781-1.1558c-1.057 2.5508-3.98 3.7758-6.5312 2.7188-0.7435-0.308-1.3509-0.805-1.8438-1.375l1.75-1.75h-6z"
     id="path4"
     style="fill:#f2f2f2;fill-opacity:1" />
</svg>
