<svg xmlns:rdf="http://www.w3.org/1999/02/22-rdf-syntax-ns#" xmlns="http://www.w3.org/2000/svg" height="16" width="16" version="1.1" xmlns:cc="http://creativecommons.org/ns#" xmlns:dc="http://purl.org/dc/elements/1.1/" viewBox="0 0 4.2333 4.2333">
 <g fill="#f2f2f2" transform="translate(0 -292.77)">
  <path style="font-variant-ligatures:normal;shape-padding:0;font-variant-alternates:normal;text-decoration-color:#000000;font-variant-position:normal;font-variant-numeric:normal;mix-blend-mode:normal;text-indent:0;text-orientation:mixed;text-decoration-line:none;font-feature-settings:normal;font-variant-caps:normal;isolation:auto;white-space:normal;text-transform:none;text-decoration-style:solid" color-rendering="auto" color="#000000" transform="matrix(.26458 0 0 .26458 0 292.77)" shape-rendering="auto" solid-color="#000000" dominant-baseline="auto" image-rendering="auto" fill="#f2f2f2" d="m6.9688-0.011719a1.0001 1.0001 0 0 0 -0.92969 0.73828l-0.93555 3.2695h-3.1035a1.0003 1.0003 0 1 0 0 2.002h2.5312l-1.1426 4h-2.3926a1.0003 1.0003 0 1 0 0 2h1.8203l-0.7793 2.7246a1.0023 1.0023 0 1 0 1.9277 0.55469l0.9375-3.2793h3.916l-0.7793 2.7246a1.0001 1.0001 0 1 0 1.9199 0.55469l0.9375-3.2793h3.1074a1.0003 1.0003 0 1 0 0 -2h-2.5371l1.1426-4h2.3906a1.0003 1.0003 0 1 0 0 -2.002h-1.8184l0.77734-2.7227a1.0001 1.0001 0 0 0 -0.98828 -1.2852 1.0001 1.0001 0 0 0 -0.93164 0.73828l-0.93359 3.2695h-3.918l0.77734-2.7227a1.0001 1.0001 0 0 0 -0.99609 -1.2852zm-0.35352 6.0098h3.918l-1.1426 4h-3.918l1.1426-4z"/>
 </g>
</svg>
