<svg xmlns:rdf="http://www.w3.org/1999/02/22-rdf-syntax-ns#" xmlns="http://www.w3.org/2000/svg" version="1.1" xml:space="preserve" height="16" width="22.929" enable-background="new 0 0 216 146" y="0px" x="0px" xmlns:cc="http://creativecommons.org/ns#" xmlns:dc="http://purl.org/dc/elements/1.1/" viewBox="0 0 22.929 16"><g fill="#f2f2f2" transform="matrix(.99997 0 0 .99997 -1.1136 -.99954)"><path d="m23.704 2.6247c-0.226-0.2262-0.494-0.3393-0.803-0.3393h-1.1429v-0.85722c0-0.39277-0.13996-0.72911-0.41975-1.0089-0.28-0.27978-0.616-0.41973-1.009-0.41973h-0.57132c-0.39301 0-0.72925 0.13994-1.009 0.41973-0.27991 0.27979-0.41975 0.61612-0.41975 1.0089v0.85722h-3.4287v-0.85722c0-0.39277-0.13996-0.72911-0.41975-1.0089-0.279-0.27978-0.616-0.41973-1.009-0.41973h-0.57143c-0.3929 0-0.72925 0.13994-1.009 0.41973-0.2798 0.27979-0.41975 0.61612-0.41975 1.0089v0.85722h-1.1429c-0.30961 0-0.57746 0.1131-0.80367 0.33929-0.226 0.2262-0.3391 0.4941-0.3391 0.8036v11.429c0 0.30937 0.1131 0.57721 0.33931 0.80352 0.22621 0.22619 0.49406 0.33929 0.80367 0.33929h12.572c0.3095 0 0.57757-0.11308 0.80356-0.33929 0.2262-0.2262 0.33931-0.49415 0.33931-0.80352v-11.429c0-0.30959-0.113-0.57743-0.33909-0.80363zm-4.232-1.1964c0-0.083402 0.02664-0.15188 0.08011-0.20537 0.05349-0.053481 0.12199-0.080322 0.20549-0.080322h0.57132c0.08351 0 0.1518 0.026741 0.20549 0.080322 0.05349 0.053601 0.08023 0.12208 0.08023 0.20537v2.5714c0 0.083402-0.02674 0.15178-0.08023 0.20537-0.0537 0.053481-0.12199 0.080322-0.20549 0.080322h-0.57132c-0.08352 0-0.152-0.02674-0.20549-0.080322-0.05349-0.053602-0.08011-0.12198-0.08011-0.20537v-2.5714zm-6.8576 0c0-0.083402 0.02674-0.15188 0.08033-0.20537 0.05358-0.053481 0.12197-0.080322 0.20538-0.080322h0.57143c0.08341 0 0.15189 0.026741 0.20538 0.080322 0.05348 0.053601 0.08032 0.12208 0.08032 0.20537v2.5714c0 0.083402-0.02674 0.15188-0.08032 0.20537-0.05358 0.053481-0.12199 0.080322-0.20538 0.080322h-0.57143c-0.08341 0-0.15189-0.02674-0.20538-0.080322-0.05348-0.053602-0.08033-0.12198-0.08033-0.20537v-2.5714zm10.286 13.429h-12.572v-9.143h12.572v9.143z"/><path d="m18.292 7.7864c-0.488-0.5626-1.098-0.8438-1.83-0.8438-0.64889 0-1.1875 0.21732-1.6161 0.65185-0.4285 0.43453-0.64276 0.9643-0.64276 1.5893 0 0.60122 0.19924 1.1147 0.59826 1.5402 0.39902 0.42566 0.91356 0.63848 1.5446 0.63848 0.26225 0 0.51377-0.04175 0.75476-0.12504 0.24077-0.0834 0.42412-0.19354 0.54916-0.33042h0.01786c-0.09523 0.51782-0.29326 0.95082-0.59376 1.2991-0.30061 0.34817-0.70095 0.52231-1.201 0.52231-0.22598 0-0.44933-0.03869-0.66928-0.11606-0.09524-0.02378-0.18751-0.05655-0.27683-0.09819l-0.34817 1.009c0.10707 0.04164 0.23201 0.08625 0.37502 0.13392 0.27376 0.09524 0.5953 0.14291 0.9643 0.14291 0.41075 0 0.79016-0.07288 1.1384-0.21874 0.34817-0.14587 0.64144-0.34083 0.87936-0.58489 0.23825-0.24406 0.44056-0.52823 0.60725-0.85262s0.28866-0.66369 0.36604-1.0179c0.07748-0.3542 0.11628-0.71574 0.11628-1.0848-0.000438-0.94052-0.24472-1.692-0.73295-2.2546zm-0.83016 2.3439c-0.20833 0.16077-0.46138 0.2411-0.75892 0.2411-0.40472 0-0.71585-0.1131-0.93328-0.3393-0.21721-0.2262-0.32604-0.50894-0.32604-0.84824s0.09228-0.61897 0.27672-0.83925 0.43157-0.33042 0.74117-0.33042c0.35113 0 0.65777 0.1577 0.91991 0.47322 0.26192 0.31551 0.39278 0.66073 0.39278 1.0358 0 0.24406-0.104 0.44648-0.31234 0.60714z"/></g><path d="m6.0073 12.571h-1.7144v-12.286c0-0.083292-0.026746-0.1519-0.080334-0.20538-0.0536-0.053425-0.122-0.080276-0.2054-0.080276h-1.7144c-0.083288 0-0.1519 0.026741-0.20538 0.080332-0.053482 0.053591-0.080334 0.12209-0.080334 0.20538v12.286h-1.7144c-0.13086 0-0.22017 0.05951-0.26785 0.17853-0.047669 0.11321-0.026746 0.21733 0.062471 0.31267l2.8572 2.8573c0.065541 0.05338 0.13392 0.08012 0.20538 0.08012 0.07737 0 0.14587-0.02675 0.20538-0.08012l2.8484-2.8484c0.059623-0.07135 0.089322-0.14302 0.089322-0.21415 0-0.08361-0.026733-0.1519-0.080334-0.20582-0.053586-0.05349-0.12198-0.08023-0.20538-0.08023z" stroke-width="0" fill="#f2f2f2"/></svg>
