<svg xmlns:rdf="http://www.w3.org/1999/02/22-rdf-syntax-ns#" xmlns="http://www.w3.org/2000/svg" height="16" width="16" version="1" xmlns:cc="http://creativecommons.org/ns#" xmlns:dc="http://purl.org/dc/elements/1.1/">
 <path fill="#f2f2f2" d="m0.89 3a0.887 0.887 0 0 0 -0.89 0.89v8.222c0 0.492 0.396 0.888 0.89 0.888h14.22c0.494 0 0.89-0.396 0.89-0.888v-8.222a0.887 0.887 0 0 0 -0.89 -0.89zm0.75 1.028l6.08 6.082h0.528l6.11-6.082 0.612 0.61-3.64 3.696 2.75 2.805-0.61 0.61-2.805-2.805-2.025 2.056h-1.28l-2.025-2.055-2.806 2.833-0.61-0.64 2.777-2.804-3.668-3.694z"/>
</svg>
