<?xml version="1.0" encoding="UTF-8" standalone="no"?>
<svg
   xmlns:dc="http://purl.org/dc/elements/1.1/"
   xmlns:cc="http://creativecommons.org/ns#"
   xmlns:rdf="http://www.w3.org/1999/02/22-rdf-syntax-ns#"
   xmlns:svg="http://www.w3.org/2000/svg"
   xmlns="http://www.w3.org/2000/svg"
   xmlns:sodipodi="http://sodipodi.sourceforge.net/DTD/sodipodi-0.dtd"
   xmlns:inkscape="http://www.inkscape.org/namespaces/inkscape"
   height="32"
   width="32"
   viewBox="0 0 32 32"
   version="1.1"
   id="svg6"
   sodipodi:docname="favicon-breeze.svg"
   inkscape:version="0.92.0 r">
  <metadata
     id="metadata12">
    <rdf:RDF>
      <cc:Work
         rdf:about="">
        <dc:format>image/svg+xml</dc:format>
        <dc:type
           rdf:resource="http://purl.org/dc/dcmitype/StillImage" />
        <dc:title></dc:title>
      </cc:Work>
    </rdf:RDF>
  </metadata>
  <defs
     id="defs10" />
  <sodipodi:namedview
     pagecolor="#ffffff"
     bordercolor="#666666"
     borderopacity="1"
     objecttolerance="10"
     gridtolerance="10"
     guidetolerance="10"
     inkscape:pageopacity="0"
     inkscape:pageshadow="2"
     inkscape:window-width="2560"
     inkscape:window-height="1377"
     id="namedview8"
     showgrid="false"
     inkscape:zoom="7.375"
     inkscape:cx="1.0847458"
     inkscape:cy="16"
     inkscape:window-x="1680"
     inkscape:window-y="0"
     inkscape:window-maximized="1"
     inkscape:current-layer="svg6" />
  <rect
     rx="5"
     ry="5"
     height="32"
     width="32"
     fill="#0082c9"
     id="rect2"
     style="fill:#31363b;fill-opacity:1" />
  <path
     style="text-decoration-color:#000;isolation:auto;mix-blend-mode:normal;block-progression:tb;text-decoration-line:none;text-indent:0;text-transform:none;text-decoration-style:solid;fill:#3cabe5;fill-opacity:1"
     d="M16.023 9.342c-3.126 0-5.75 2.14-6.552 5.02-.7-1.54-2.24-2.632-4.03-2.632-2.436 0-4.44 2.004-4.44 4.44 0 2.438 2.003 4.442 4.44 4.442 1.79 0 3.33-1.092 4.03-2.632.802 2.88 3.427 5.02 6.553 5.02 3.11 0 5.72-2.117 6.538-4.972.713 1.512 2.23 2.584 4 2.584 2.437 0 4.44-2.004 4.44-4.442 0-2.437-2.004-4.44-4.44-4.44-1.77 0-3.288 1.072-4 2.584-.818-2.855-3.428-4.972-6.537-4.972zm0 2.607a4.203 4.203 0 0 1 4.223 4.22 4.203 4.203 0 0 1-4.223 4.223A4.203 4.203 0 0 1 11.8 16.17a4.203 4.203 0 0 1 4.223-4.22zM5.44 14.336c1.028 0 1.834.805 1.834 1.834a1.815 1.815 0 0 1-1.834 1.835 1.815 1.815 0 0 1-1.834-1.834c0-1.028.806-1.833 1.834-1.833zm21.12 0c1.027 0 1.833.805 1.834 1.834 0 1.03-.806 1.835-1.835 1.835a1.815 1.815 0 0 1-1.835-1.834c0-1.028.806-1.833 1.834-1.833z"
     fill="#fff"
     color="#000"
     white-space="normal"
     id="path4" />
</svg>
