<svg xmlns:rdf="http://www.w3.org/1999/02/22-rdf-syntax-ns#" xmlns="http://www.w3.org/2000/svg" height="16" width="16" version="1" xmlns:cc="http://creativecommons.org/ns#" xmlns:dc="http://purl.org/dc/elements/1.1/">
 <path fill="#f2f2f2" d="m5 7.474c0.155 0.382 0.325 0.69 0.644 0.246 0.407-0.268 1.76-1.427 1.662-0.342-0.368 2.017-0.834 4.017-1.17 6.04-0.393 1.114 0.634 2.067 1.637 1.31 1.078-0.502 1.99-1.287 2.927-2.01-0.144-0.323-0.25-0.79-0.596-0.347-0.468 0.24-1.47 1.318-1.696 0.472 0.315-2.18 0.975-4.295 1.365-6.462 0.397-1.005-0.364-2.223-1.4-1.363-1.256 0.616-2.29 1.582-3.373 2.456zm4.46-7.469c-1.31-0.022-1.907 2.142-0.645 2.675 1.023 0.378 2.077-0.714 1.79-1.75-0.098-0.542-0.598-0.97-1.147-0.93z"/>
</svg>
