<svg xmlns:rdf="http://www.w3.org/1999/02/22-rdf-syntax-ns#" xmlns="http://www.w3.org/2000/svg" height="16" width="16" version="1.1" xmlns:cc="http://creativecommons.org/ns#" xmlns:dc="http://purl.org/dc/elements/1.1/">
 <path fill="#f2f2f2" d="m6.508 10.106v-0.642q0-0.833 0.356-1.449t1.302-1.31q0.91-0.65 1.197-1.059 0.295-0.408 0.295-0.91 0-0.565-0.416-0.86-0.417-0.295-1.163-0.295-1.302 0-2.968 0.85l-0.945-1.9q1.934-1.084 4.104-1.084 1.787 0 2.837 0.859 1.059 0.859 1.059 2.29 0 0.955-0.434 1.649t-1.649 1.562q-0.833 0.616-1.058 0.937-0.217 0.32-0.217 0.842v0.52zm-0.277 2.968q0-0.73 0.39-1.102 0.39-0.373 1.137-0.373 0.72 0 1.11 0.381 0.4 0.382 0.4 1.094 0 0.685-0.4 1.084-0.399 0.39-1.11 0.39-0.729 0-1.128-0.381-0.4-0.39-0.4-1.093z"/>
</svg>
