<svg xmlns:rdf="http://www.w3.org/1999/02/22-rdf-syntax-ns#" xmlns="http://www.w3.org/2000/svg" height="34" width="62" version="1.1" xmlns:cc="http://creativecommons.org/ns#" xmlns:dc="http://purl.org/dc/elements/1.1/" viewBox="0 0 62.000002 34">
 <path style="text-decoration-color:#000;block-progression:tb;isolation:auto;mix-blend-mode:normal;text-indent:0;text-decoration-line:none;text-transform:none;text-decoration-style:solid" d="m31.6 4c-5.95 0-10.947 4.075-12.473 9.555-1.333-2.93-4.266-5.01-7.674-5.01-4.638 0.001-8.453 3.815-8.453 8.455s3.814 8.453 8.453 8.454c3.41 0 6.34-2.08 7.672-5.01 1.525 5.479 6.525 9.556 12.475 9.556 5.918 0 10.89-4.03 12.448-9.465 1.354 2.878 4.242 4.918 7.61 4.92 4.64 0 8.456-3.816 8.456-8.456s-3.816-8.455-8.455-8.454c-3.37 0-6.26 2.04-7.614 4.918-1.559-5.433-6.527-9.463-12.445-9.463zm0 4.962a8 8 0 0 1 8.04 8.038 8 8 0 0 1 -8.04 8.038 8 8 0 0 1 -8.037 -8.04 8 8 0 0 1 8.037 -8.035zm-20.147 4.546a3.454 3.454 0 0 1 3.49 3.49 3.455 3.455 0 0 1 -3.49 3.494 3.455 3.455 0 0 1 -3.49 -3.492 3.454 3.454 0 0 1 3.49 -3.492zm40.205 0a3.455 3.455 0 0 1 3.493 3.49 3.455 3.455 0 0 1 -3.492 3.494 3.455 3.455 0 0 1 -3.491 -3.492 3.454 3.454 0 0 1 3.49 -3.492z" white-space="normal" fill="#3daee9"/>
</svg>
