<?xml version="1.0" encoding="UTF-8" standalone="no"?>
<svg
   xmlns:dc="http://purl.org/dc/elements/1.1/"
   xmlns:cc="http://creativecommons.org/ns#"
   xmlns:rdf="http://www.w3.org/1999/02/22-rdf-syntax-ns#"
   xmlns:svg="http://www.w3.org/2000/svg"
   xmlns="http://www.w3.org/2000/svg"
   xmlns:sodipodi="http://sodipodi.sourceforge.net/DTD/sodipodi-0.dtd"
   xmlns:inkscape="http://www.inkscape.org/namespaces/inkscape"
   height="120"
   width="252"
   viewBox="0 0 252.00001 120.00171"
   version="1.1"
   id="svg4"
   sodipodi:docname="logo.svg"
   inkscape:version="0.92.1 r">
  <metadata
     id="metadata10">
    <rdf:RDF>
      <cc:Work
         rdf:about="">
        <dc:format>image/svg+xml</dc:format>
        <dc:type
           rdf:resource="http://purl.org/dc/dcmitype/StillImage" />
        <dc:title></dc:title>
      </cc:Work>
    </rdf:RDF>
  </metadata>
  <defs
     id="defs8" />
  <sodipodi:namedview
     pagecolor="#ffffff"
     bordercolor="#666666"
     borderopacity="1"
     objecttolerance="10"
     gridtolerance="10"
     guidetolerance="10"
     inkscape:pageopacity="0"
     inkscape:pageshadow="2"
     inkscape:window-width="1263"
     inkscape:window-height="1069"
     id="namedview6"
     showgrid="false"
     inkscape:zoom="1.2460317"
     inkscape:cx="49.757962"
     inkscape:cy="60"
     inkscape:window-x="2969"
     inkscape:window-y="134"
     inkscape:window-maximized="0"
     inkscape:current-layer="svg4" />
  <path
     style="color:#000000;text-indent:0;text-decoration:none;text-decoration-line:none;text-decoration-style:solid;text-decoration-color:#000000;text-transform:none;white-space:normal;isolation:auto;mix-blend-mode:normal;fill:#3daee9;fill-opacity:1"
     d="m 126.99256,3.19 c -26.05,0.003 -47.917001,17.835 -54.600001,41.827 -5.832,-12.832 -18.67,-21.927 -33.588,-21.927 -20.305,0.002 -36.9999998,16.697 -37.0019998,37.002 -0.004,20.31 16.6929998,37.008 37.0019998,37.01 14.918,-0.002 27.748,-9.1 33.58,-21.935 6.68,23.995 28.558001,41.833 54.608001,41.833 25.904,0.003 47.668,-17.64 54.486,-41.43 5.927,12.597 18.568,21.53 33.314,21.532 20.313,0.004 37.013,-16.697 37.01,-37.01 -0.002,-20.31 -16.7,-37.006 -37.01,-37.002 -14.746,0.002 -27.395,8.933 -33.32,21.53 -6.81,-23.79 -28.57,-41.43 -54.47,-41.43 z m 0,21.72 c 19.56,0 35.186,15.62 35.188,35.182 0,19.563 -15.625,35.19 -35.188,35.188 -19.56,0 -35.182001,-15.627 -35.180001,-35.188 0.002,-19.56 15.620001,-35.18 35.180001,-35.18 z m -88.188001,19.9 c 8.57,0.002 15.28,6.713 15.28,15.282 0.002,8.57 -6.71,15.288 -15.28,15.29 -8.57,-0.002 -15.283,-6.72 -15.28,-15.29 0,-8.57 6.71,-15.28 15.28,-15.28 z m 175.990001,0 c 8.57,0 15.288,6.71 15.29,15.282 0,8.573 -6.717,15.29 -15.29,15.29 -8.57,-0.002 -15.283,-6.72 -15.28,-15.29 0,-8.57 6.71,-15.28 15.28,-15.28 z"
     id="path2"
     inkscape:connector-curvature="0" />
</svg>
