<svg xmlns:rdf="http://www.w3.org/1999/02/22-rdf-syntax-ns#" xmlns="http://www.w3.org/2000/svg" version="1.1" xml:space="preserve" height="16" width="22.8" enable-background="new 0 0 216 146" y="0px" x="0px" xmlns:cc="http://creativecommons.org/ns#" xmlns:dc="http://purl.org/dc/elements/1.1/" viewBox="0 0 22.799999 16"><g fill="#f2f2f2"><g opacity=".95" transform="translate(-.5 5.5737e-7)"><path d="m21.729 11.516h-3.2292c-0.18235 0-0.31244 0.0087-0.39042 0.02588l-0.18235 0.02604v-0.02604l0.14319-0.14319c0.12994-0.15598 0.22134-0.26896 0.27344-0.338l4.8043-6.9014v-1.1586h-7.3826v2.9815h1.5625v-1.4973h3.0206c0.15614 0 0.28655-0.013125 0.39026-0.038995 0.02604 0 0.05865-0.00219 0.09765-0.00656 0.03884-0.00394 0.06729-0.00656 0.08437-0.00656v0.038995l-0.14319 0.11731c-0.07783 0.07799-0.1694 0.19497-0.27344 0.35143l-4.8043 6.888v1.1718h7.6039v-3.0336h-1.5751v1.5494z"/><path d="m16.316 11.62-2.9947-8.6197h-2.1092l-2.9947 8.6197h-0.9111v1.3801h3.7366v-1.3801h-0.9763l0.61193-1.8749h3.1641l0.61176 1.8749h-0.97614v1.3801h3.75v-1.3801h-0.91222zm-5.208-3.3076 0.95-2.8384c0.03451-0.1042 0.06729-0.23013 0.09765-0.37764 0.03004-0.14751 0.04538-0.22566 0.04538-0.23429l0.039-0.26034h0.05211c0 0.03468 0.0088 0.12146 0.02573 0.26034l0.15646 0.61193 0.93731 2.8384h-2.3042z"/></g><path d="m6.0073 12.571h-1.7144v-12.286c0-0.083292-0.026746-0.1519-0.080334-0.20538-0.0536-0.053424-0.122-0.080275-0.2054-0.080275h-1.7144c-0.083288 0-0.1519 0.026741-0.20538 0.080332-0.053482 0.053591-0.080334 0.12209-0.080334 0.20538v12.286h-1.7144c-0.13086 0-0.22017 0.05951-0.26785 0.17853-0.047669 0.11321-0.026746 0.21733 0.062471 0.31267l2.8573 2.858c0.065541 0.05338 0.13392 0.08012 0.20538 0.08012 0.07737 0 0.14587-0.02675 0.20538-0.08012l2.8484-2.8484c0.059623-0.07135 0.089322-0.14302 0.089322-0.21415 0-0.08361-0.026733-0.1519-0.080334-0.20582-0.053586-0.05349-0.12198-0.08023-0.20538-0.08023z" stroke-width="0"/><text style="word-spacing:0px;letter-spacing:0px" xml:space="preserve" font-size="40px" y="2.4000006" x="7.8000002" font-family="Sans" line-height="125%"><tspan y="2.4000006" x="7.8000002" fill="#f2f2f2"/></text>
</g></svg>
