<svg xmlns:rdf="http://www.w3.org/1999/02/22-rdf-syntax-ns#" xmlns="http://www.w3.org/2000/svg" height="16" width="16" version="1.1" xmlns:cc="http://creativecommons.org/ns#" xmlns:dc="http://purl.org/dc/elements/1.1/" viewBox="0 0 16 16">
 <path fill="#f2f2f2" d="m13.086 1.9135c-0.255 0-0.51103 0.097169-0.70703 0.29297l-10.086 10.082c-0.3918 0.392-0.3918 1.024 0 1.416 0.3917 0.392 1.0242 0.392 1.416 0l10.084-10.084c0.39199-0.39201 0.392-1.0242 0-1.416-0.196-0.1953-0.451-0.2905-0.707-0.2905zm-5.086 0.0865c-0.5523 0-1 0.4477-1 1 0 0.0472 0.021 0.0873 0.0273 0.1328-1.7366 0.4362-3.0273 1.9953-3.0273 3.8672v2l-1 1v0.168l6.7441-6.7442c-0.2458-0.1195-0.5008-0.223-0.7714-0.291 0.0063-0.0455 0.0273-0.0856 0.0273-0.1328 0-0.5523-0.4477-1-1-1zm3.986 4.8418-4.1559 4.1582h5.1699v-1l-1-1v-2c0-0.054-0.012-0.1047-0.014-0.1582zm-5.1559 5.1582-0.6992 0.699c0.284 0.759 1.0112 1.301 1.8691 1.301 1.1046 0 2-0.8954 2-2z"/>
</svg>
