<?xml version="1.0" encoding="UTF-8" standalone="no"?>
<svg
   xmlns:dc="http://purl.org/dc/elements/1.1/"
   xmlns:cc="http://creativecommons.org/ns#"
   xmlns:rdf="http://www.w3.org/1999/02/22-rdf-syntax-ns#"
   xmlns:svg="http://www.w3.org/2000/svg"
   xmlns="http://www.w3.org/2000/svg"
   xmlns:sodipodi="http://sodipodi.sourceforge.net/DTD/sodipodi-0.dtd"
   xmlns:inkscape="http://www.inkscape.org/namespaces/inkscape"
   height="16"
   width="16"
   version="1.1"
   viewBox="0 0 16 16"
   id="svg4"
   sodipodi:docname="notifications-off.svg"
   inkscape:version="0.92.1 r">
  <metadata
     id="metadata10">
    <rdf:RDF>
      <cc:Work
         rdf:about="">
        <dc:format>image/svg+xml</dc:format>
        <dc:type
           rdf:resource="http://purl.org/dc/dcmitype/StillImage" />
        <dc:title></dc:title>
      </cc:Work>
    </rdf:RDF>
  </metadata>
  <defs
     id="defs8" />
  <sodipodi:namedview
     pagecolor="#ffffff"
     bordercolor="#666666"
     borderopacity="1"
     objecttolerance="10"
     gridtolerance="10"
     guidetolerance="10"
     inkscape:pageopacity="0"
     inkscape:pageshadow="2"
     inkscape:window-width="2560"
     inkscape:window-height="1377"
     id="namedview6"
     showgrid="false"
     inkscape:zoom="69.601562"
     inkscape:cx="8"
     inkscape:cy="8"
     inkscape:window-x="1680"
     inkscape:window-y="0"
     inkscape:window-maximized="1"
     inkscape:current-layer="svg4" />
  <path
     d="m13.086 1.9135c-0.255 0-0.51103 0.097169-0.70703 0.29297l-10.086 10.082c-0.3918 0.392-0.3918 1.024 0 1.416 0.3917 0.392 1.0242 0.392 1.416 0l10.084-10.084c0.39199-0.39201 0.392-1.0242 0-1.416-0.196-0.1953-0.451-0.2905-0.707-0.2905zm-5.086 0.0865c-0.5523 0-1 0.4477-1 1 0 0.0472 0.021 0.0873 0.0273 0.1328-1.7366 0.4362-3.0273 1.9953-3.0273 3.8672v2l-1 1v0.168l6.7441-6.7442c-0.2458-0.1195-0.5008-0.223-0.7714-0.291 0.0063-0.0455 0.0273-0.0856 0.0273-0.1328 0-0.5523-0.4477-1-1-1zm3.986 4.8418-4.1559 4.1582h5.1699v-1l-1-1v-2c0-0.054-0.012-0.1047-0.014-0.1582zm-5.1559 5.1582-0.6992 0.699c0.284 0.759 1.0112 1.301 1.8691 1.301 1.1046 0 2-0.8954 2-2z"
     id="path2"
     style="fill:#f2f2f2;fill-opacity:1" />
</svg>
