<svg xmlns:rdf="http://www.w3.org/1999/02/22-rdf-syntax-ns#" xmlns="http://www.w3.org/2000/svg" height="16" width="16" version="1" xmlns:cc="http://creativecommons.org/ns#" xmlns:dc="http://purl.org/dc/elements/1.1/">
 <path d="m-62.897-32.993h163.31v97.986h-163.31z" fill="none"/>
 <path style="block-progression:tb;text-transform:none;text-indent:0" d="m8.404 1c-1.732 0-3.2 1.266-3.2 2.9 0.012 0.516 0.058 1.153 0.366 2.5v0.033l0.034 0.034c0.1 0.283 0.243 0.445 0.433 0.666s0.417 0.482 0.633 0.7l0.067 0.067c0.043 0.186 0.095 0.387 0.133 0.567 0.103 0.478 0.093 0.817 0.067 0.933-0.744 0.26-1.67 0.572-2.5 0.933-0.466 0.203-0.888 0.384-1.233 0.6-0.345 0.217-0.688 0.38-0.8 0.867-0.16 0.633-0.2 0.754-0.4 1.533-0.027 0.21 0.083 0.43 0.267 0.534 1.509 0.813 3.825 1.143 6.134 1.133s4.606-0.356 6.066-1.133c0.117-0.074 0.143-0.11 0.133-0.234-0.043-0.69-0.08-1.367-0.133-1.766a0.537 0.537 0 0 0 -0.133 -0.267c-0.464-0.554-1.157-0.892-1.967-1.233-0.74-0.312-1.607-0.635-2.466-1-0.05-0.107-0.096-0.42 0-0.9 0.025-0.13 0.066-0.268 0.1-0.4 0.08-0.09 0.143-0.165 0.233-0.267 0.19-0.218 0.396-0.447 0.566-0.667s0.31-0.408 0.4-0.666l0.034-0.034c0.348-1.406 0.348-1.992 0.366-2.5v-0.033c0-1.634-1.468-2.9-3.2-2.9z" fill="#f2f2f2"/>
</svg>
