<?xml version="1.0" encoding="UTF-8" standalone="no"?>
<svg
   xmlns:dc="http://purl.org/dc/elements/1.1/"
   xmlns:cc="http://creativecommons.org/ns#"
   xmlns:rdf="http://www.w3.org/1999/02/22-rdf-syntax-ns#"
   xmlns:svg="http://www.w3.org/2000/svg"
   xmlns="http://www.w3.org/2000/svg"
   xmlns:sodipodi="http://sodipodi.sourceforge.net/DTD/sodipodi-0.dtd"
   xmlns:inkscape="http://www.inkscape.org/namespaces/inkscape"
   viewBox="0 0 16 16"
   version="1.1"
   xml:space="preserve"
   id="svg8"
   sodipodi:docname="survey.svg"
   inkscape:version="0.92.1 r"><metadata
     id="metadata14"><rdf:RDF><cc:Work
         rdf:about=""><dc:format>image/svg+xml</dc:format><dc:type
           rdf:resource="http://purl.org/dc/dcmitype/StillImage" /><dc:title></dc:title></cc:Work></rdf:RDF></metadata><defs
     id="defs12" /><sodipodi:namedview
     pagecolor="#ffffff"
     bordercolor="#666666"
     borderopacity="1"
     objecttolerance="10"
     gridtolerance="10"
     guidetolerance="10"
     inkscape:pageopacity="0"
     inkscape:pageshadow="2"
     inkscape:window-width="2560"
     inkscape:window-height="1377"
     id="namedview10"
     showgrid="false"
     inkscape:zoom="69.601562"
     inkscape:cx="8"
     inkscape:cy="8"
     inkscape:window-x="1680"
     inkscape:window-y="0"
     inkscape:window-maximized="1"
     inkscape:current-layer="svg8" /><g
     id="g6"
     style="fill:#f2f2f2;fill-opacity:1"><path
       d="M5.083,1.654c0.001,0.27 0.005,0.54 0.012,0.809c0.008,0.106 0.029,0.209 0.07,0.307c0.097,0.23 0.29,0.413 0.524,0.499c0.086,0.031 0.175,0.047 0.266,0.054c1.363,0.034 2.727,0.034 4.09,0c0.106,-0.008 0.209,-0.029 0.307,-0.07c0.23,-0.097 0.413,-0.29 0.499,-0.524c0.031,-0.086 0.047,-0.175 0.054,-0.266c0.007,-0.269 0.011,-0.539 0.012,-0.809l1.462,0c0.61,0.001 1.103,0.495 1.103,1.103l0,10.702c0,0.607 -0.493,1.102 -1.103,1.103l-8.758,0c-0.609,0 -1.103,-0.495 -1.103,-1.103l0,-10.702c0,-0.609 0.494,-1.103 1.103,-1.103l1.462,0Zm6.915,5.328l-1.999,0l0,6.016l1.999,0l0,-6.016Zm-5.998,4.007l-1.999,0l0,2.009l1.999,0l0,-2.009Zm2.999,-1.991l-1.999,0l0,4l1.999,0l0,-4Zm1.106,-7.344c0.003,0.256 0.007,0.512 0.001,0.769c-0.001,0.014 -0.005,0.027 -0.01,0.04c-0.008,0.014 -0.017,0.026 -0.029,0.037c-0.013,0.009 -0.026,0.016 -0.041,0.021c-0.011,0.002 -0.021,0.003 -0.032,0.003c-1.333,0 -2.666,0.033 -3.999,0c-0.014,-0.001 -0.027,-0.005 -0.04,-0.01c-0.014,-0.008 -0.026,-0.017 -0.037,-0.029c-0.009,-0.013 -0.016,-0.026 -0.021,-0.041c-0.002,-0.011 -0.003,-0.021 -0.003,-0.032c0,-0.253 0.004,-0.506 0.006,-0.758l4.205,0Z"
       fill="#000"
       id="path2"
       style="fill:#f2f2f2;fill-opacity:1" /><path
       d="M10.107,0.895c-0.017,0.509 0.012,1.018 -0.001,1.528c-0.001,0.014 -0.005,0.027 -0.01,0.04c-0.008,0.014 -0.017,0.026 -0.029,0.037c-0.013,0.009 -0.026,0.016 -0.041,0.021c-0.011,0.002 -0.021,0.003 -0.032,0.003c-1.333,0 -2.666,0.033 -3.999,0c-0.014,-0.001 -0.027,-0.005 -0.04,-0.01c-0.014,-0.008 -0.026,-0.017 -0.037,-0.029c-0.009,-0.013 -0.016,-0.026 -0.021,-0.041c-0.002,-0.011 -0.003,-0.021 -0.003,-0.032c0,-0.505 0.016,-1.011 0,-1.517l4.213,0Z"
       fill="#000"
       id="path4"
       style="fill:#f2f2f2;fill-opacity:1" /></g></svg>