<svg xmlns:rdf="http://www.w3.org/1999/02/22-rdf-syntax-ns#" xmlns="http://www.w3.org/2000/svg" height="64" width="64" version="1.1" xmlns:cc="http://creativecommons.org/ns#" xmlns:dc="http://purl.org/dc/elements/1.1/" viewBox="0 0 16.933333 16.933334">
 <g fill="#f2f2f2" transform="translate(0 -280.07)">
  <ellipse cy="295" cx="5.9626" r=".52917"/>
  <path d="m18 4c-2.77 0-5 2.23-5 5v46c0 2.77 2.23 5 5 5h28c2.77 0 5-2.23 5-5v-46c0-2.77-2.23-5-5-5h-28zm0 6h28v40h-28v-40zm14 42a3 3 0 0 1 3 3 3 3 0 0 1 -3 3 3 3 0 0 1 -3 -3 3 3 0 0 1 3 -3z" transform="matrix(.26458 0 0 .26458 0 280.07)"/>
  <path d="m8.4667 287.74a2.3812 2.3812 0 0 0 -2.3812 2.3812 2.3812 2.3812 0 0 0 2.3812 2.3812 2.3812 2.3812 0 0 0 2.3813 -2.3812 2.3812 2.3812 0 0 0 -2.3813 -2.3812zm0 1.0583a1.3229 1.3229 0 0 1 1.3229 1.3229 1.3229 1.3229 0 0 1 -1.3229 1.3229 1.3229 1.3229 0 0 1 -1.3229 -1.3229 1.3229 1.3229 0 0 1 1.3229 -1.3229z"/>
  <rect height="4.4979" width="1.0583" y="283.51" x="7.6729"/>
  <rect height=".79375" width="2.3812" y="284.04" x="7.6729"/>
  <rect height=".79375" width="1.8521" y="285.36" x="7.6729"/>
 </g>
</svg>
