<?xml version="1.0" encoding="UTF-8" standalone="no"?>
<svg
   xmlns:dc="http://purl.org/dc/elements/1.1/"
   xmlns:cc="http://creativecommons.org/ns#"
   xmlns:rdf="http://www.w3.org/1999/02/22-rdf-syntax-ns#"
   xmlns:svg="http://www.w3.org/2000/svg"
   xmlns="http://www.w3.org/2000/svg"
   xmlns:sodipodi="http://sodipodi.sourceforge.net/DTD/sodipodi-0.dtd"
   xmlns:inkscape="http://www.inkscape.org/namespaces/inkscape"
   height="16"
   width="16"
   viewbox="0 0 32 32"
   version="1.1"
   id="svg4"
   sodipodi:docname="users6.svg"
   inkscape:version="0.92.1 r">
  <metadata
     id="metadata10">
    <rdf:RDF>
      <cc:Work
         rdf:about="">
        <dc:format>image/svg+xml</dc:format>
        <dc:type
           rdf:resource="http://purl.org/dc/dcmitype/StillImage" />
        <dc:title></dc:title>
      </cc:Work>
    </rdf:RDF>
  </metadata>
  <defs
     id="defs8" />
  <sodipodi:namedview
     pagecolor="#ffffff"
     bordercolor="#666666"
     borderopacity="1"
     objecttolerance="10"
     gridtolerance="10"
     guidetolerance="10"
     inkscape:pageopacity="0"
     inkscape:pageshadow="2"
     inkscape:window-width="2560"
     inkscape:window-height="1377"
     id="namedview6"
     showgrid="false"
     inkscape:zoom="24.689351"
     inkscape:cx="36.396015"
     inkscape:cy="4.0607716"
     inkscape:window-x="1680"
     inkscape:window-y="0"
     inkscape:window-maximized="1"
     inkscape:current-layer="svg4"
     inkscape:pagecheckerboard="true"
     fit-margin-left="-2.7755576e-17"
     fit-margin-top="0"
     fit-margin-right="0"
     fit-margin-bottom="0" />
  <path
     style="color:#000000;text-indent:0;text-transform:none;fill:#f2f2f2;fill-opacity:1;stroke-width:0.5"
     d="m 4.6826021,2.8777103 c -0.9775,0 -1.8065,0.715 -1.8065,1.6375 0.007,0.2915 0.033,0.651 0.207,1.4115 v 0.0185 l 0.019,0.019 c 0.056,0.16 0.1375,0.2515 0.245,0.3765 0.1075,0.125 0.235,0.272 0.3575,0.395 l 0.0375,0.038 c 0.024,0.105 0.0535,0.218 0.075,0.32 0.0585,0.27 0.0525,0.461 0.038,0.5265 -0.42,0.1475 -0.9425,0.3235 -1.4115,0.527 -0.263,0.114 -0.5010003,0.2165 -0.6960003,0.3385 -0.195,0.122 -0.3885,0.215 -0.4515,0.489 a 0.2365,0.2365 0 0 0 0,0.038 c -0.0615,0.565 -0.155,1.3964997 -0.226,1.9574997 a 0.309,0.309 0 0 0 0.15,0.3015 c 0.8520003,0.46 2.1600003,0.645 3.4635003,0.64 1.3035,-0.005 2.601,-0.2015 3.425,-0.64 a 0.309,0.309 0 0 0 0.15,-0.3015 c -0.022,-0.175 -0.05,-0.57 -0.075,-0.96 -0.025,-0.3889997 -0.045,-0.7714997 -0.075,-0.9969997 a 0.3035,0.3035 0 0 0 -0.075,-0.15 c -0.262,-0.313 -0.653,-0.504 -1.11,-0.6965 -0.418,-0.176 -0.9075,-0.3585 -1.393,-0.565 -0.0275,-0.06 -0.055,-0.2365 0,-0.508 0.015,-0.072 0.037,-0.15 0.0565,-0.225 l 0.1315,-0.15 c 0.108,-0.124 0.2235,-0.253 0.32,-0.377 0.096,-0.125 0.175,-0.231 0.226,-0.3765 l 0.0185,-0.019 c 0.1965,-0.794 0.1965,-1.125 0.2065,-1.4115 v -0.0185 c 0,-0.9225 -0.829,-1.6375 -1.8065,-1.6375 z m 5.168,-1.5025 c -1.425,0 -2.634,1.042 -2.634,2.387 0.01,0.425 0.048,0.949 0.302,2.0575 v 0.0275 l 0.0275,0.0275 c 0.081,0.233 0.2,0.3665 0.3565,0.5485 0.1565,0.182 0.3435,0.3965 0.5215,0.5765 0.02,0.021 0.034,0.034 0.055,0.055 0.035,0.153 0.0775,0.318 0.11,0.466 0.084,0.394 0.075,0.673 0.055,0.7685 -0.613,0.215 -1.375,0.471 -2.0585,0.768 -0.384,0.167 -0.731,0.316 -1.015,0.494 -0.285,0.178 -0.567,0.3125 -0.6585,0.7134997 a 0.335,0.335 0 0 0 0,0.055 c -0.09,0.824 -0.226,2.035 -0.33,2.8535 a 0.45,0.45 0 0 0 0.22,0.439 c 1.24,0.67 3.1475,0.94 5.048,0.9325 1.9005009,-0.0075 3.7920009,-0.293 4.9935009,-0.9325 a 0.45,0.45 0 0 0 0.22,-0.439 c -0.0335,-0.256 -0.074,-0.8325 -0.11,-1.4 -0.036,-0.5665 -0.067,-1.125 -0.11,-1.4535 a 0.442,0.442 0 0 0 -0.11,-0.22 c -0.3815,-0.4549997 -0.9515,-0.7339997 -1.6185,-1.0149997 -0.6085,-0.2565 -1.3225,-0.5225 -2.03,-0.823 -0.04,-0.0885 -0.08,-0.345 0,-0.7415 0.021,-0.106 0.054,-0.22 0.082,-0.329 0.0665,-0.075 0.1185,-0.136 0.192,-0.22 0.1575,-0.18 0.326,-0.3675 0.4665,-0.549 0.14,-0.181 0.255,-0.3365 0.33,-0.5485 l 0.0265,-0.0275 c 0.287,-1.1575 0.287,-1.64 0.302,-2.058 v -0.0255 c 0,-1.345 -1.209,-2.3875 -2.6340009,-2.3875 z"
     id="path2"
     inkscape:connector-curvature="0" />
</svg>
