<svg xmlns:rdf="http://www.w3.org/1999/02/22-rdf-syntax-ns#" xmlns="http://www.w3.org/2000/svg" viewbox="0 0 32 32" height="32" width="32" version="1.1" xmlns:cc="http://creativecommons.org/ns#" xmlns:dc="http://purl.org/dc/elements/1.1/">
 <path style="block-progression:tb;text-transform:none;text-indent:0" fill="#f2f2f2" d="m9.24 6.67c-1.955 0-3.613 1.43-3.613 3.275 0.014 0.583 0.066 1.302 0.414 2.823v0.037l0.038 0.038c0.112 0.32 0.275 0.503 0.49 0.753s0.47 0.544 0.715 0.79l0.075 0.076c0.048 0.21 0.107 0.436 0.15 0.64 0.117 0.54 0.105 0.922 0.076 1.053-0.84 0.295-1.885 0.647-2.823 1.054-0.526 0.228-1.002 0.433-1.392 0.677s-0.777 0.43-0.903 0.978a0.473 0.473 0 0 0 0 0.076c-0.123 1.13-0.31 2.793-0.452 3.915a0.618 0.618 0 0 0 0.3 0.603c1.704 0.92 4.32 1.29 6.927 1.28s5.202-0.403 6.85-1.28a0.618 0.618 0 0 0 0.3 -0.603c-0.044-0.35-0.1-1.14-0.15-1.92-0.05-0.778-0.09-1.543-0.15-1.994a0.607 0.607 0 0 0 -0.15 -0.3c-0.524-0.626-1.306-1.008-2.22-1.393-0.836-0.352-1.815-0.717-2.786-1.13-0.055-0.12-0.11-0.473 0-1.016 0.03-0.144 0.074-0.3 0.113-0.45l0.263-0.3c0.216-0.248 0.447-0.506 0.64-0.754 0.192-0.25 0.35-0.462 0.452-0.753l0.037-0.038c0.393-1.588 0.393-2.25 0.413-2.823v-0.037c0-1.845-1.658-3.275-3.613-3.275zm10.336-3.005c-2.85 0-5.268 2.084-5.268 4.774 0.02 0.85 0.096 1.898 0.604 4.115v0.055l0.055 0.055c0.162 0.466 0.4 0.733 0.713 1.097s0.687 0.793 1.043 1.153c0.04 0.042 0.068 0.068 0.11 0.11 0.07 0.306 0.155 0.636 0.22 0.932 0.168 0.788 0.15 1.346 0.11 1.537-1.226 0.43-2.75 0.942-4.117 1.536-0.768 0.334-1.462 0.632-2.03 0.988-0.57 0.356-1.134 0.625-1.317 1.427a0.67 0.67 0 0 0 0 0.11c-0.18 1.648-0.452 4.07-0.66 5.707a0.9 0.9 0 0 0 0.44 0.878c2.48 1.34 6.295 1.88 10.096 1.865s7.584-0.586 9.987-1.865a0.9 0.9 0 0 0 0.44 -0.878c-0.067-0.512-0.148-1.665-0.22-2.8-0.072-1.133-0.134-2.25-0.22-2.907a0.884 0.884 0 0 0 -0.22 -0.44c-0.763-0.91-1.903-1.468-3.237-2.03-1.217-0.513-2.645-1.045-4.06-1.646-0.08-0.177-0.16-0.69 0-1.483 0.042-0.212 0.108-0.44 0.164-0.658 0.133-0.15 0.237-0.272 0.384-0.44 0.315-0.36 0.652-0.735 0.933-1.098 0.28-0.362 0.51-0.673 0.66-1.097l0.053-0.055c0.574-2.315 0.574-3.28 0.604-4.116v-0.051c0-2.69-2.418-4.775-5.268-4.775z"/>
</svg>
