<svg xmlns:rdf="http://www.w3.org/1999/02/22-rdf-syntax-ns#" xmlns="http://www.w3.org/2000/svg" height="16" width="16" version="1.1" xmlns:cc="http://creativecommons.org/ns#" xmlns:dc="http://purl.org/dc/elements/1.1/" viewBox="0 0 4.233 4.233">
 <path stroke-linejoin="round" d="m1.597 3.082v0.47l-0.085 0.043-0.395 0.202h2l-0.403-0.206-0.079-0.04v-0.469zm-1.33-2.646c-0.092 0-0.227 0.076-0.227 0.17v2.307c0 0.094 0.075 0.17 0.167 0.17h3.82a0.168 0.168 0 0 0 0.168 -0.17v-2.307a0.169 0.169 0 0 0 -0.167 -0.17zm-0.035 0.16l3.735-0.026c0.052 0 0.09 0.042 0.09 0.095v2.141c0 0.053-0.04 0.095-0.09 0.095h-3.7a0.092 0.092 0 0 1 -0.093 -0.094v-2.132a0.14 0.14 0 0 1 0.058 -0.078z" stroke="#f2f2f2" stroke-width=".079104" fill="#f2f2f2"/>
</svg>
