<svg xmlns:rdf="http://www.w3.org/1999/02/22-rdf-syntax-ns#" xmlns="http://www.w3.org/2000/svg" height="16" width="16" version="1.1" xmlns:cc="http://creativecommons.org/ns#" xmlns:dc="http://purl.org/dc/elements/1.1/" viewBox="0 0 4.233 4.233">
 <path d="m1.19 0a0.399 0.399 0 0 0 -0.396 0.396v3.441a0.4 0.4 0 0 0 0.396 0.397h1.72a0.4 0.4 0 0 0 0.397 -0.397v-3.441a0.399 0.399 0 0 0 -0.396 -0.397zm0.135 0.398h1.453a0.13 0.13 0 0 1 0.134 0.133v2.974a0.13 0.13 0 0 1 -0.133 0.133h-1.454a0.13 0.13 0 0 1 -0.134 -0.133v-2.974a0.13 0.13 0 0 1 0.134 -0.133z" fill="#f2f2f2"/>
</svg>
