<svg xmlns:rdf="http://www.w3.org/1999/02/22-rdf-syntax-ns#" xmlns="http://www.w3.org/2000/svg" height="16" width="16" version="1.1" xmlns:cc="http://creativecommons.org/ns#" xmlns:dc="http://purl.org/dc/elements/1.1/" viewBox="0 0 4.233 4.233">
 <path fill="#f2f2f2" d="m0.971 0a0.452 0.452 0 0 0 -0.441 0.455v3.323c0 0.249 0.2 0.455 0.442 0.455h2.29a0.452 0.452 0 0 0 0.443 -0.455v-3.323c0-0.249-0.2-0.455-0.442-0.455zm0 0.426h2.29c0.02 0 0.03 0.008 0.03 0.029v3.323c0 0.02-0.01 0.03-0.03 0.03h-2.289c-0.02 0-0.027-0.01-0.027-0.03v-3.323c0-0.02 0.008-0.029 0.027-0.029z"/>
</svg>
