<svg width="32" height="32" enable-background="new 0 0 595.275 311.111" version="1.1" viewBox="0 0 32 32" xml:space="preserve" xmlns="http://www.w3.org/2000/svg"><rect y="-5.2588e-6" width="32" height="32" rx="5" ry="5" fill="#31363b"/><g transform="matrix(.89286 0 0 .89286 520.21 -.19331)" fill="#3daee9"><path d="m-572.71 3.5765c-1.108 0-2 0.892-2 2v4c0 1.108 0.892 2 2 2s2-0.892 2-2v-4c0-1.108-0.892-2-2-2zm16 0c-1.108 0-2 0.892-2 2v4c0 1.108 0.892 2 2 2s2-0.892 2-2v-4c0-1.108-0.892-2-2-2zm-13 4v2c0 1.662-1.338 3-3 3s-3-1.338-3-3v-1.875c-1.728 0.44254-3 2.0052-3 3.875v16c0 2.216 1.784 4 4 4h20c2.216 0 4-1.784 4-4v-16c0-1.8698-1.272-3.4325-3-3.875v1.875c0 1.662-1.338 3-3 3s-3-1.338-3-3v-2h-10zm-5.9062 9h21.812c0.0554 0 0.0937 0.03835 0.0937 0.09375v11.812c0 0.0554-0.0384 0.09375-0.0937 0.09375h-21.812c-0.0554 0-0.0937-0.03835-0.0937-0.09375v-11.812c0-0.0554 0.0384-0.09375 0.0937-0.09375z" fill="#3daee9"/></g></svg>
