<svg xmlns:rdf="http://www.w3.org/1999/02/22-rdf-syntax-ns#" xmlns="http://www.w3.org/2000/svg" height="160" viewBox="0 0 160 160" width="160" version="1.1" xmlns:cc="http://creativecommons.org/ns#" xmlns:dc="http://purl.org/dc/elements/1.1/">
 <path d="m141.88 20c-45.601 44.66-69.018 40.8-128.16 45.344v5.625l-8.7188 2.9062v12.25l8.7188 2.9062v6.6875c7.2506 0.82224 13.884 1.3283 20.062 1.7188-9.3186 15.96-12.967 29.885-9.6562 35.688 0 0 31.865 14.352 30.25 1.5-1.0862-8.6464 1.8702-23.572 4.9375-35.875 29.009 1.689 48.527 6.052 82.438 41.125 3.2558-16.68 4.9474-33.382 5.3438-50.062l6.5-1.4688c3.1577-5.5519 2.5426-11.104 0-16.656l-6.625-1.5c-0.58527-16.732-2.3612-33.455-5.0938-50.188z" fill="#f2f2f2"/>
</svg>
