<?xml version="1.0" encoding="UTF-8" standalone="no"?>
<svg
   xmlns:dc="http://purl.org/dc/elements/1.1/"
   xmlns:cc="http://creativecommons.org/ns#"
   xmlns:rdf="http://www.w3.org/1999/02/22-rdf-syntax-ns#"
   xmlns:svg="http://www.w3.org/2000/svg"
   xmlns="http://www.w3.org/2000/svg"
   xmlns:sodipodi="http://sodipodi.sourceforge.net/DTD/sodipodi-0.dtd"
   xmlns:inkscape="http://www.inkscape.org/namespaces/inkscape"
   xml:space="preserve"
   version="1.0"
   id="layer1"
   width="400pt"
   height="400pt"
   viewBox="0 0 75 75"
   inkscape:version="0.91 r13725"
   sodipodi:docname="audioplayer.svg"><defs
     id="defs12" /><sodipodi:namedview
     pagecolor="#ffffff"
     bordercolor="#666666"
     borderopacity="1"
     objecttolerance="10"
     gridtolerance="10"
     guidetolerance="10"
     inkscape:pageopacity="0"
     inkscape:pageshadow="2"
     inkscape:window-width="3200"
     inkscape:window-height="1683"
     id="namedview10"
     showgrid="false"
     inkscape:zoom="1.3350176"
     inkscape:cx="154.54412"
     inkscape:cy="252.83052"
     inkscape:window-x="0"
     inkscape:window-y="0"
     inkscape:window-maximized="1"
     inkscape:current-layer="layer1" /><metadata
     id="metadata1"><rdf:RDF><cc:Work
         rdf:about=""><dc:format>image/svg+xml</dc:format><dc:type
           rdf:resource="http://purl.org/dc/dcmitype/StillImage" /></cc:Work></rdf:RDF></metadata><g
     id="g1"
     style="stroke:#f2f2f2;stroke-opacity:1"><polygon
       id="polygon1"
       points="39.389,13.769 22.235,28.606 6,28.606 6,47.699 21.989,47.699 39.389,62.75 39.389,13.769"
       style="stroke-width:5;stroke-linejoin:round;stroke:#f2f2f2;stroke-opacity:1" /><path
       id="path1"
       d="M 48.128,49.03 C 50.057,45.934 51.19,42.291 51.19,38.377 C 51.19,34.399 50.026,30.703 48.043,27.577"
       style="fill:none;stroke:#f2f2f2;stroke-width:5;stroke-linecap:round;stroke-opacity:1" /><path
       id="path2"
       d="M 55.082,20.537 C 58.777,25.523 60.966,31.694 60.966,38.377 C 60.966,44.998 58.815,51.115 55.178,56.076"
       style="fill:none;stroke:#f2f2f2;stroke-width:5;stroke-linecap:round;stroke-opacity:1" /><path
       id="path8"
       d="M 61.71,62.611 C 66.977,55.945 70.128,47.531 70.128,38.378 C 70.128,29.161 66.936,20.696 61.609,14.01"
       style="fill:none;stroke:#f2f2f2;stroke-width:5;stroke-linecap:round;stroke-opacity:1" /></g><path
     style="opacity:0.25;fill:none;fill-opacity:1;stroke:#f2f2f2;stroke-width:0.74905378;stroke-opacity:1"
     d="m 200.23039,341.85978 c -39.14343,-33.86504 -45.35489,-38.96585 -48.63719,-39.9406 -3.15544,-0.93706 -11.11672,-1.11744 -49.31918,-1.11744 l -45.556328,0 0,-46.41521 0,-46.41521 48.126708,-0.21339 48.1267,-0.21339 3.37075,-2.04062 c 1.85391,-1.12234 22.58397,-18.6954 46.06681,-39.05126 l 42.69606,-37.01064 0.19152,62.83372 c 0.10533,34.55854 0.10533,91.08775 0,125.62045 l -0.19152,62.78673 -44.87433,-38.82314 z"
     id="path4140"
     inkscape:connector-curvature="0"
     transform="scale(0.15,0.15)" /><path
     style="opacity:1;fill:#f2f2f2;fill-opacity:1;stroke:#f2f2f2;stroke-width:0.74905378;stroke-opacity:1"
     d="m 230.12365,366.87959 c -41.71512,-36.12497 -68.6838,-59.1105 -72.93368,-62.1617 -4.49375,-3.22629 -5.14398,-3.45729 -11.23581,-3.99161 -3.55631,-0.31192 -24.92084,-0.59108 -47.476719,-0.62036 l -41.010695,-0.0532 0,-45.69228 0,-45.69228 26.404146,-0.001 c 14.522281,-7.5e-4 36.303608,-0.2245 48.402948,-0.49721 l 21.9988,-0.49582 4.21809,-3.18346 c 4.06795,-3.07004 44.56336,-37.68282 72.38197,-61.86716 l 13.48297,-11.72153 0.19156,62.10401 c 0.10536,34.15721 0.10536,90.02537 0,124.15149 l -0.19156,62.04747 -14.23202,-12.32482 z"
     id="path4142"
     inkscape:connector-curvature="0"
     transform="scale(0.15,0.15)" /><path
     style="opacity:1;fill:#f2f2f2;fill-opacity:1;stroke:#f2f2f2;stroke-width:0.74905378;stroke-opacity:1"
     d="m 255.59147,433.47901 c -1.64791,-0.79803 -28.27678,-23.37618 -59.17524,-50.17368 l -56.17904,-48.72271 -52.276342,-0.0367 c -49.969984,-0.0351 -52.398954,-0.0999 -55.055454,-1.46919 -1.528511,-0.78786 -3.860266,-2.55875 -5.181677,-3.93533 -4.893828,-5.09813 -4.713445,-2.23627 -4.713445,-74.78099 0,-72.54472 -0.180383,-69.68286 4.713445,-74.78096 1.321411,-1.37657 3.653166,-3.14746 5.181677,-3.93533 2.658722,-1.37041 5.076121,-1.43322 55.804507,-1.44998 l 53.025399,-0.0175 55.42998,-47.99295 c 30.48649,-26.396123 56.68058,-48.635137 58.20909,-49.420032 3.61191,-1.854722 10.40799,-1.868878 14.45555,-0.03011 3.75398,1.705398 7.53862,5.944208 8.60636,9.639152 0.57981,2.006453 0.75183,51.19249 0.59558,170.28965 l -0.21972,167.46829 -2.06629,3.12232 c -3.22924,4.87963 -7.29664,7.17331 -13.20652,7.4474 -3.7223,0.17264 -5.69551,-0.13058 -7.94786,-1.22131 z M 246.2283,254.61883 c 0,-120.96581 -0.0631,-127.02564 -1.31084,-125.93637 -31.2106,27.24616 -88.04994,75.95514 -89.69919,76.86852 -2.01816,1.11768 -7.18995,1.26573 -50.7484,1.45276 l -48.501231,0.20826 0,47.1694 0,47.16939 46.307901,0 c 39.72423,0 46.77947,0.16371 49.62481,1.15152 2.53046,0.8785 13.97315,10.37824 48.26014,40.06567 24.71878,21.40278 45.19604,38.91806 45.50502,38.92285 0.30899,0.005 0.56179,-57.1776 0.56179,-127.072 z"
     id="path4144"
     inkscape:connector-curvature="0"
     transform="scale(0.15,0.15)" /><path
     style="opacity:1;fill:#f2f2f2;fill-opacity:1;stroke:#f2f2f2;stroke-width:0.74905378;stroke-opacity:1"
     d="m 258.31393,434.91049 c -2.87121,-0.70997 -5.18633,-2.29191 -12.08563,-8.25819 -2.67786,-2.31573 -16.49791,-14.17333 -30.7112,-26.35023 -14.2133,-12.17689 -36.9451,-31.77846 -50.5151,-43.55905 l -24.67275,-21.41925 -52.479797,-0.22004 c -57.650261,-0.24172 -53.774184,0.0693 -59.532912,-4.77639 -4.05575,-3.41269 -4.672236,-5.51602 -5.455267,-18.61232 -1.025283,-17.148 -0.324468,-122.77474 0.839142,-126.4753 1.142341,-3.63294 4.705478,-7.67625 8.602108,-9.76136 3.061993,-1.63849 3.156391,-1.64161 56.306722,-1.8609 l 53.239584,-0.21966 13.05168,-11.30991 c 70.56385,-61.14704 97.48138,-84.098084 100.69096,-85.853422 1.46221,-0.799687 3.99177,-1.222144 7.24159,-1.209401 4.21162,0.01651 5.55864,0.368417 8.59431,2.24523 2.20825,1.365257 4.47626,3.643453 5.86686,5.89321 l 2.26697,3.667562 -0.12367,168.791341 -0.12368,168.79135 -2.52855,3.52019 c -4.02765,5.6072 -11.93343,8.59317 -18.47137,6.97654 z M 246.17919,264.05538 c 0.12693,-110.43054 -0.14554,-135.12877 -1.48521,-134.62623 -0.31347,0.11759 -11.29569,9.48334 -24.40494,20.81277 -47.12506,40.727 -62.86017,54.1039 -65.07077,55.31869 -2.01004,1.10457 -7.32559,1.25687 -50.37387,1.44328 l -48.126708,0.20841 0,47.1478 0,47.14781 47.377648,0.2087 c 42.79325,0.18851 47.5951,0.33083 49.62482,1.47078 2.08966,1.17363 11.04999,8.80215 69.13045,58.85536 12.06704,10.39926 22.22225,18.90774 22.56715,18.90774 0.34489,0 0.68754,-52.60279 0.76143,-116.89511 z"
     id="path4146"
     inkscape:connector-curvature="0"
     transform="scale(0.15,0.15)" /><path
     style="opacity:1;fill:#f2f2f2;fill-opacity:1;stroke:#f2f2f2;stroke-width:0.74905378;stroke-opacity:1"
     d="M 255.21695,434.17638 C 252.8064,432.89941 211.06163,397.3448 160.9936,353.92501 l -20.44155,-17.72723 -50.718563,-0.50844 c -29.572396,-0.29646 -52.380654,-0.83144 -54.705055,-1.28315 -4.949345,-0.96182 -10.006343,-5.4298 -11.328795,-10.00926 -1.661319,-5.7529 -2.404229,-46.88625 -1.694366,-93.8135 l 0.6826,-45.12499 2.18882,-3.54033 c 1.203851,-1.94718 3.641667,-4.56198 5.41737,-5.81066 l 3.228551,-2.27033 54.321348,-0.74906 54.32135,-0.74905 22.93244,-19.84992 c 65.38483,-56.595988 88.48947,-76.143759 91.23046,-77.18588 3.25377,-1.237082 10.56908,-0.8519 13.61239,0.71675 2.79976,1.443115 6.37247,4.861617 8.65835,8.284636 1.14056,1.707974 1.23677,15.041214 1.23677,171.405984 l 0,169.55394 -4.30706,4.27642 c -4.7221,4.68851 -8.04414,6.11246 -14.13166,6.05737 -2.06035,-0.0187 -4.80355,-0.63976 -6.28005,-1.42193 z M 245.83747,215.9258 c -0.0993,-56.04116 -0.40618,-84.7578 -0.91106,-85.26268 -0.51566,-0.51566 -7.09048,4.70648 -20.37868,16.18604 -37.62877,32.50716 -66.59844,57.21847 -68.67181,58.57746 -1.95955,1.28439 -5.08345,1.38202 -50.62332,1.58208 l -48.534908,0.21321 0,47.14299 0,47.14301 47.377648,0.23542 c 26.05771,0.12949 48.22034,0.49941 49.25029,0.82204 1.40338,0.43961 1.57546,0.39418 0.68672,-0.18129 -3.07001,-1.98789 -1.45625,-1.92841 -58.925651,-2.17191 l -37.639953,-0.15949 0,-45.69228 0,-45.69228 30.898469,-0.10147 c 68.825605,-0.22602 66.317605,-0.0659 70.988415,-4.53084 1.02138,-0.97636 3.03683,-2.65812 4.47876,-3.73725 1.44192,-1.07912 3.80144,-3.03083 5.24337,-4.33712 1.44193,-1.3063 3.92075,-3.44792 5.50849,-4.75916 4.41072,-3.64263 19.97895,-16.90833 21.06038,-17.94557 0.52624,-0.50474 2.57616,-2.266 4.55539,-3.91391 8.10943,-6.75198 15.73691,-13.30024 16.44066,-14.11445 0.41198,-0.47665 2.26589,-2.08956 4.11979,-3.58426 1.85391,-1.49469 4.59457,-3.85421 6.09035,-5.24337 1.49579,-1.38916 4.36092,-3.92562 6.36696,-5.63657 2.00605,-1.71094 4.5232,-3.90192 5.59368,-4.86885 1.07048,-0.96692 2.75586,-2.44095 3.74527,-3.27563 l 1.79894,-1.51759 0,123.98789 0,123.98789 -2.17089,-1.87264 c -1.19398,-1.02995 -2.87245,-2.54678 -3.72993,-3.37074 -0.85748,-0.82396 -2.91424,-2.63202 -4.57059,-4.01791 -6.03078,-5.04601 -10.38229,-8.74086 -11.58833,-9.83958 -2.551,-2.32403 -7.34295,-6.48039 -11.22679,-9.7377 -2.21049,-1.85391 -4.6379,-3.95648 -5.39424,-4.67237 -1.47793,-1.39889 -22.36589,-19.33633 -27.10848,-23.27928 -1.57779,-1.31176 -3.30034,-2.78336 -3.82789,-3.27022 -1.62293,-1.49774 -7.51862,-6.48492 -10.46518,-8.85251 -1.53816,-1.23594 -3.49797,-2.83704 -4.35512,-3.55801 -2.1061,-1.77148 -2.77259,-1.66725 -0.93389,0.14605 0.81252,0.80129 20.522,17.79958 43.79884,37.77399 l 42.32154,36.31708 0.44127,-40.2084 c 0.24269,-22.11463 0.37386,-78.23404 0.29148,-124.70982 z m -88.74657,88.62121 c 0,-0.41198 -0.35697,-0.74906 -0.79326,-0.74906 -0.4363,0 -0.58494,0.33708 -0.33032,0.74906 0.25462,0.41198 0.61159,0.74905 0.79326,0.74905 0.18168,0 0.33032,-0.33707 0.33032,-0.74905 z"
     id="path4148"
     inkscape:connector-curvature="0"
     transform="scale(0.15,0.15)" /><path
     style="opacity:1;fill:#f2f2f2;fill-opacity:1;stroke:#f2f2f2;stroke-width:0.74905378;stroke-opacity:1"
     d="m 258.41919,435.68107 c -1.32861,-0.331 -3.23107,-1.13609 -4.22768,-1.7891 -3.64356,-2.38736 -50.52373,-42.35052 -96.56682,-82.31874 l -17.06897,-14.81691 -6.1517,-0.0159 c -3.38343,-0.009 -27.05029,-0.33932 -52.593025,-0.73472 l -46.441336,-0.7189 -4.094846,-2.08568 c -2.958616,-1.50694 -4.679606,-3.0315 -6.202256,-5.49433 -1.995256,-3.22725 -2.150771,-4.12358 -2.922186,-16.84223 -0.526284,-8.67707 -0.67937,-33.21913 -0.432354,-69.31289 l 0.382423,-55.87932 1.883728,-2.98402 c 1.036051,-1.64121 3.432198,-4.34704 5.324772,-6.01295 l 3.441043,-3.02892 20.41071,-0.46077 c 11.22589,-0.25342 35.858237,-0.67397 54.738547,-0.93457 l 34.32784,-0.4738 27.84363,-24.08698 c 71.43428,-61.796397 84.56249,-72.686108 88.52335,-73.429169 7.08453,-1.329065 14.67072,1.976572 19.34033,8.42742 l 2.33976,3.232271 0.29437,169.663758 0.29437,169.66376 -3.7955,3.65837 c -6.13271,5.91115 -12.63362,8.27272 -18.6482,6.7743 z m -18.93237,-60.21791 c 0,-0.13417 -0.92696,-1.06113 -2.0599,-2.0599 l -2.0599,-1.81594 1.81594,2.0599 c 1.69727,1.92528 2.30386,2.4034 2.30386,1.81594 z m 5.8051,-181.21433 c -0.10799,-32.64938 -0.19635,-5.93625 -0.19635,59.36252 0,65.29876 0.0884,92.01189 0.19635,59.36251 0.10799,-32.64938 0.10799,-86.07564 0,-118.72503 z m -11.04848,176.72958 c 0,-0.12892 -1.09549,-1.22441 -2.43442,-2.43443 l -2.43443,-2.20004 2.20004,2.43443 c 2.05074,2.26923 2.66881,2.77873 2.66881,2.20004 z m -5.24337,-4.54299 c 0,-0.15568 -2.27526,-2.20949 -5.05612,-4.56402 l -5.05611,-4.28097 4.86885,4.5517 c 4.80444,4.49149 5.24338,4.85089 5.24338,4.29329 z m -10.48676,-9.05959 c 0,-0.19469 -9.52234,-8.50104 -21.16077,-18.45855 -11.63842,-9.95751 -20.42985,-17.33498 -19.53651,-16.39438 1.44754,1.52412 40.04744,35.01952 40.51002,35.15292 0.10299,0.0297 0.18726,-0.10529 0.18726,-0.29999 z M 175.81725,320.7918 c 0,-0.12891 -1.0955,-1.2244 -2.43443,-2.43442 l -2.43442,-2.20004 2.20003,2.43442 c 2.05075,2.26923 2.66882,2.77873 2.66882,2.20004 z m -5.24338,-4.50389 c 0,-0.13417 -0.92695,-1.06113 -2.0599,-2.0599 l -2.0599,-1.81594 1.81594,2.0599 c 1.69728,1.92528 2.30386,2.4034 2.30386,1.81594 z m -18.18016,-14.44062 c -0.24891,-0.2489 -0.89497,-0.27551 -1.43569,-0.0591 -0.59754,0.23911 -0.42005,0.41661 0.45256,0.45255 0.78962,0.0325 1.23203,-0.14452 0.98313,-0.39342 l 0,-3e-5 z m -27.88665,-1.0845 c -40.250486,-0.81796 -67.934548,-0.80196 -67.414841,0.0389 0.302035,0.4887 16.394045,0.6994 46.298281,0.60621 42.35651,-0.132 43.95922,-0.18097 21.11656,-0.64516 z m 2.24716,-92.80708 c 19.64242,-0.43646 16.70092,-0.51735 -23.36372,-0.64251 -29.904612,-0.0934 -45.996242,0.11715 -46.298281,0.60587 -0.519332,0.84029 32.707661,0.85778 69.662001,0.0366 l 0,2e-5 z m 29.35269,-2.09654 c 0.78602,-0.72097 1.01344,-1.03465 0.50539,-0.69708 -0.50805,0.33757 -1.87223,0.89848 -3.03152,1.24646 -1.70933,0.51309 -1.80487,0.64486 -0.50539,0.69708 0.8813,0.0354 2.24549,-0.5255 3.03152,-1.24646 z m 4.35473,-3.18348 c 0.74568,-0.82396 1.18724,-1.49811 0.98125,-1.49811 -0.20599,0 -0.98463,0.67415 -1.7303,1.49811 -0.74568,0.82396 -1.18724,1.49811 -0.98125,1.49811 0.20599,0 0.98463,-0.67415 1.7303,-1.49811 z m 37.07817,-31.60086 c 25.31667,-21.67258 44.28201,-38.28174 35.24972,-30.87041 -6.65644,5.46184 -66.68102,57.05601 -68.20809,58.62829 l -1.87264,1.92809 1.87264,-1.53736 c 1.02995,-0.84554 15.86121,-13.51242 32.95837,-28.14861 z"
     id="path4150"
     inkscape:connector-curvature="0"
     transform="scale(0.15,0.15)" /><path
     style="opacity:1;fill:#f2f2f2;fill-opacity:1;stroke:#f2f2f2;stroke-width:0.74905378;stroke-opacity:1"
     d="m 255.21558,434.92674 c -3.58605,-1.89693 -43.38002,-35.62579 -97.94981,-83.02099 l -16.67884,-14.48598 -52.608635,-0.79758 c -52.5539,-0.79674 -52.612143,-0.79936 -55.979378,-2.50903 -4.147722,-2.10598 -7.034444,-5.06936 -8.608222,-8.83684 -1.919517,-4.59515 -2.65941,-36.03355 -2.14496,-91.14037 l 0.458028,-49.06302 2.889769,-3.8863 c 4.285668,-5.76355 7.497004,-7.93776 12.141005,-8.21995 2.133174,-0.12962 26.742488,-0.59816 54.687363,-1.04119 l 50.80887,-0.80552 21.84935,-18.9127 c 63.29632,-54.788997 87.03128,-74.734839 91.97345,-77.290538 3.021,-1.562222 9.26966,-1.51811 13.29842,0.09388 1.78395,0.713796 4.75799,3.04746 7.08006,5.555564 l 4.00395,4.324757 0.49862,104.022867 c 0.27424,57.21258 0.49875,133.91207 0.49891,170.44331 l 3e-4,66.42044 -3.93253,3.44891 c -7.89154,6.92102 -16.03852,9.00487 -22.28572,5.70028 z M 102.97176,301.00513 c -1.54492,-0.1616 -4.072976,-0.1616 -5.617899,0 -1.544924,0.16161 -0.280895,0.29382 2.808949,0.29382 3.08985,0 4.35388,-0.13221 2.80895,-0.29382 z m -25.832052,-0.73067 c -0.92129,-0.1778 -2.606661,-0.18241 -3.745269,-0.0102 -1.138609,0.17217 -0.384827,0.31764 1.675071,0.32327 2.059898,0.005 2.991487,-0.13525 2.070198,-0.31305 l 0,-3e-5 z m 3.360442,-92.15692 c -1.956903,-0.15431 -5.159108,-0.15431 -7.116011,0 -1.956903,0.1543 -0.3558,0.28055 3.558006,0.28055 3.913806,0 5.514908,-0.12625 3.558005,-0.28055 z m 23.22067,-0.75393 c -2.78086,-0.14413 -7.331366,-0.14413 -10.112228,0 -2.780862,0.14412 -0.505612,0.26204 5.056113,0.26204 5.561725,0 7.836975,-0.11792 5.056115,-0.26204 z"
     id="path4152"
     inkscape:connector-curvature="0"
     transform="scale(0.15,0.15)" /><path
     style="opacity:1;fill:#f2f2f2;fill-opacity:1;stroke:#f2f2f2;stroke-width:0.74905378;stroke-opacity:1"
     d="m 257.2406,436.41292 c -2.55012,-0.81672 -7.35536,-4.64116 -31.9858,-25.4572 -18.14348,-15.33367 -68.67197,-58.79097 -79.6711,-68.52154 l -5.14024,-4.54741 -16.58232,-0.20762 c -9.12027,-0.11418 -32.826963,-0.52043 -52.681531,-0.90277 -34.781422,-0.66979 -36.216983,-0.75429 -39.325324,-2.31478 -4.189945,-2.10349 -6.408638,-4.16998 -8.174777,-7.61397 C 21.21402,322.0399 20.677951,305.7845 20.91656,243.06577 l 0.221077,-58.11049 3.215938,-4.25909 c 1.768766,-2.3425 4.486668,-5.10002 6.039781,-6.12782 3.407113,-2.25472 4.555878,-2.31086 68.858645,-3.36532 l 42.908839,-0.70364 32.37107,-27.95919 c 60.58826,-52.330643 76.77179,-65.761212 82.12372,-68.153743 6.53735,-2.922461 14.45051,-0.486352 20.80174,6.403924 l 3.05339,3.312532 0.45502,16.777577 c 0.25026,9.22767 0.66576,86.07011 0.92332,170.76097 l 0.4683,153.9834 -4.01979,3.53127 c -7.02864,6.17444 -15.44124,9.06814 -21.09701,7.25677 z"
     id="path4154"
     inkscape:connector-curvature="0"
     transform="scale(0.15,0.15)" /><path
     style="opacity:1;fill:#f2f2f2;fill-opacity:1;stroke:#f2f2f2;stroke-width:0.74905378;stroke-opacity:1"
     d="m 253.97146,435.13382 c -1.71497,-1.16825 -7.78231,-5.9939 -13.48297,-10.72366 -9.21249,-7.64349 -78.76901,-67.19784 -94.25887,-80.70453 l -5.99243,-5.22522 -50.463168,-0.89837 c -27.754743,-0.49411 -52.136477,-1.21571 -54.181633,-1.60356 -4.857606,-0.92123 -9.536214,-4.12764 -11.673619,-8.00033 -3.158991,-5.72368 -3.426278,-12.10384 -3.342741,-79.79149 l 0.07834,-63.47637 3.546605,-4.51427 c 5.747678,-7.31587 6.462652,-7.58308 22.284322,-8.32846 7.481726,-0.35247 32.028497,-0.92555 54.548384,-1.2735 l 40.94523,-0.63264 15.5328,-13.41775 c 66.63664,-57.56297 89.32322,-76.61431 96.64778,-81.161179 3.40765,-2.115373 4.94638,-2.610427 8.06492,-2.594718 5.2145,0.02627 9.99433,2.315413 14.96247,7.165786 l 4.09414,3.997104 0.44452,49.063027 c 0.24449,26.98466 0.65208,103.8641 0.90576,170.8432 l 0.46124,121.78017 -4.01284,3.52517 c -5.7119,5.01777 -11.14541,7.50457 -17.10703,7.82951 -4.36464,0.2379 -5.21415,0.0406 -8.00121,-1.85792 z"
     id="path4156"
     inkscape:connector-curvature="0"
     transform="scale(0.15,0.15)" /><path
     style="opacity:1;fill:#f2f2f2;fill-opacity:1;stroke:#f2f2f2;stroke-width:0.74905378;stroke-opacity:1"
     d="m 256.13515,436.75422 c -3.76278,-1.63506 -12.99807,-9.29337 -66.54623,-55.18303 l -49.53433,-42.4499 -39.98308,-0.79638 c -51.028875,-1.01638 -62.459943,-1.43769 -66.39475,-2.44704 -4.141735,-1.06245 -9.401021,-5.72921 -11.025478,-9.78332 -2.162928,-5.39796 -2.590394,-18.69342 -2.614283,-81.312 l -0.02294,-60.13898 3.75475,-4.68554 c 4.830857,-6.0284 6.821539,-7.13662 14.377372,-8.00399 6.399995,-0.73468 63.918399,-2.2034 89.282829,-2.27982 l 14.30629,-0.0431 27.34046,-23.64655 c 53.40303,-46.187866 78.20881,-66.890927 85.16708,-71.080979 7.68177,-4.625723 15.15027,-2.99192 23.82595,5.212145 l 4.11409,3.890456 -0.002,14.953312 c -0.002,8.224326 0.36561,85.064746 0.81596,170.756496 l 0.81882,155.80319 -3.54455,3.21437 c -4.79903,4.35201 -9.39255,6.93396 -14.45672,8.12593 -5.28037,1.24286 -6.60983,1.2284 -9.679,-0.10527 z"
     id="path4158"
     inkscape:connector-curvature="0"
     transform="scale(0.15,0.15)" /><path
     style="opacity:1;fill:#f2f2f2;fill-opacity:1;stroke:#f2f2f2;stroke-width:0.74905378;stroke-opacity:1"
     d="m 256.34053,437.21742 c -4.93428,-2.22998 -8.81168,-5.44293 -78.05129,-64.67587 L 139.9378,339.73276 103.75838,338.9755 c -44.789711,-0.93749 -68.565208,-1.88825 -71.010409,-2.83964 -3.597445,-1.39971 -8.211226,-5.37605 -9.759689,-8.41129 -0.858433,-1.68267 -1.890346,-5.64781 -2.293139,-8.81142 -0.402793,-3.16362 -0.936607,-34.74041 -1.186254,-70.17065 l -0.453902,-64.41863 5.535648,-5.74546 c 5.051709,-5.24318 5.895809,-5.81558 9.655444,-6.5475 4.673656,-0.90987 36.138265,-2.01298 78.748221,-2.7608 l 28.93613,-0.50785 24.24669,-20.94762 c 56.68558,-48.972824 82.18561,-70.181095 88.6653,-73.742584 7.54559,-4.147349 14.79855,-2.319928 23.74999,5.983935 l 4.19841,3.894672 0.78687,170.761467 c 0.73985,160.55634 0.71049,170.848 -0.49123,172.20961 -2.5322,2.8691 -10.00943,7.89636 -13.84365,9.30766 -6.19811,2.28141 -9.4837,2.53301 -12.90228,0.98802 z"
     id="path4160"
     inkscape:connector-curvature="0"
     transform="scale(0.15,0.15)" /><path
     style="opacity:1;fill:#f2f2f2;fill-opacity:1;stroke:#f2f2f2;stroke-width:0.74905378;stroke-opacity:1"
     d="M 254.09337,436.51036 C 249.58224,433.858 233.98006,420.83663 180.7903,375.33259 l -40.27623,-34.45648 -6.13087,-0.50991 c -3.37198,-0.28044 -23.49019,-0.88726 -44.707141,-1.34847 -43.675819,-0.94944 -55.756826,-1.61725 -58.928739,-3.25752 -3.276966,-1.69458 -7.945447,-6.84105 -9.100613,-10.03238 -1.596274,-4.40996 -2.214985,-23.49551 -2.750664,-84.8504 l -0.493758,-56.55356 5.233799,-5.44111 c 2.878589,-2.99261 6.395444,-5.92648 7.815234,-6.51971 3.426165,-1.43154 23.956613,-2.41231 72.082232,-3.44348 28.85061,-0.61818 38.47678,-1.0519 39.32533,-1.77187 0.61797,-0.52433 14.43801,-12.3946 30.7112,-26.37838 56.75334,-48.768924 75.18507,-63.9447 81.80923,-67.357677 7.17438,-3.696468 15.11463,-1.502249 23.95342,6.619316 l 4.26585,3.919704 0.52372,171.005877 0.52372,171.00588 -3.46507,3.22683 c -4.984,4.64132 -13.39823,8.72146 -18.90057,9.16507 -3.92187,0.31619 -4.8801,0.10037 -8.18701,-1.84396 z"
     id="path4162"
     inkscape:connector-curvature="0"
     transform="scale(0.15,0.15)" /><path
     style="opacity:1;fill:#f2f2f2;fill-opacity:1;stroke:#f2f2f2;stroke-width:0.74905378;stroke-opacity:1"
     d="m 252.59526,436.13829 c -5.02055,-3.45924 -32.77497,-26.73452 -76.33576,-64.01635 l -35.88685,-30.71402 -6.06016,-0.45253 c -3.33309,-0.24889 -20.55435,-0.79998 -38.269473,-1.22465 -46.887996,-1.124 -61.269898,-1.92102 -65.064897,-3.60578 -3.377344,-1.49935 -8.34356,-6.52874 -9.531181,-9.65242 -1.633653,-4.29684 -2.177652,-18.84954 -2.959228,-79.16337 l -0.814515,-62.85574 5.47749,-5.55033 c 3.012619,-3.05269 6.368465,-6.02129 7.457434,-6.5969 2.802464,-1.48132 17.476212,-2.44438 50.453821,-3.31135 57.465119,-1.51076 59.351279,-1.60016 61.655459,-2.92227 1.17335,-0.67326 17.27488,-14.22313 35.78117,-30.11083 54.13638,-46.476247 69.79158,-59.311846 76.71838,-62.900938 7.16202,-3.710967 15.99398,-1.233962 24.83073,6.964 l 4.23175,3.925851 0.47646,171.283207 0.47646,171.28322 -4.33369,3.54772 c -6.44755,5.27823 -12.93807,8.10273 -19.31475,8.40527 -4.94166,0.23445 -5.4589,0.10027 -8.98865,-2.33179 z"
     id="path4164"
     inkscape:connector-curvature="0"
     transform="scale(0.15,0.15)" /><path
     style="opacity:1;fill:#f2f2f2;fill-opacity:1;stroke:#f2f2f2;stroke-width:0.74905378;stroke-opacity:1"
     d="m 254.84242,437.97058 c -3.3147,-1.51917 -31.54286,-24.95548 -81.5813,-67.73252 l -32.8928,-28.11952 -4.18536,-0.44204 c -2.30195,-0.24313 -22.55591,-0.94642 -45.008793,-1.56288 -42.945805,-1.17913 -56.234718,-1.98546 -60.229449,-3.65456 -3.623375,-1.51395 -7.635379,-5.35345 -9.397442,-8.99338 -2.106907,-4.35229 -2.778467,-20.25833 -3.782293,-89.58446 l -0.775497,-53.55735 6.294962,-6.12762 c 4.467203,-4.34844 7.135569,-6.35168 9.190086,-6.89932 4.22954,-1.1274 24.195689,-2.16962 59.448687,-3.10321 43.976689,-1.1646 48.780809,-1.51365 51.947459,-3.77429 1.40073,-0.99996 14.59726,-12.09888 29.32563,-24.66426 59.82486,-51.03903 69.53483,-59.085014 78.4935,-65.04213 5.03807,-3.35009 5.48016,-3.495361 10.57223,-3.474045 4.08549,0.0171 6.0937,0.428184 8.68504,1.77783 4.87081,2.536865 13.44604,9.725074 13.82385,11.587884 0.17771,0.876213 0.47406,78.204631 0.65855,171.840911 l 0.33545,170.24781 -4.18393,3.4082 c -5.43872,4.43035 -11.48902,7.44369 -16.98609,8.45988 -5.73913,1.06093 -6.21061,1.03237 -9.75249,-0.59093 z"
     id="path4166"
     inkscape:connector-curvature="0"
     transform="scale(0.15,0.15)" /><path
     style="opacity:1;fill:#f2f2f2;fill-opacity:1;stroke:#f2f2f2;stroke-width:0.74905378;stroke-opacity:1"
     d="m 255.56063,438.67339 c -4.70192,-2.14427 -27.70102,-21.13314 -88.19828,-72.81963 -19.44238,-16.61082 -27.53199,-23.07879 -29.24774,-23.38475 -1.30445,-0.23262 -19.22545,-0.9441 -39.824432,-1.58107 -42.344679,-1.3094 -61.551953,-2.3081 -65.659078,-3.41404 -4.058006,-1.09271 -8.895179,-5.07486 -10.888804,-8.96409 -2.469791,-4.81815 -3.057271,-14.15928 -3.933194,-62.53907 -0.410242,-22.65888 -0.926328,-50.34663 -1.146857,-61.52833 l -0.400963,-20.33037 6.088803,-5.72791 c 3.348841,-3.15036 7.008375,-6.20344 8.132297,-6.78464 2.828991,-1.46293 16.276686,-2.45765 45.710709,-3.3812 39.292189,-1.23287 60.803489,-2.22023 63.851859,-2.93077 3.06336,-0.71402 5.70199,-2.83988 43.26283,-34.85562 39.45246,-33.628095 59.89588,-50.486388 66.92242,-55.186363 l 6.79389,-4.544354 6.06128,0.257783 c 5.65639,0.240563 6.38409,0.468221 10.89402,3.408112 2.65802,1.732681 6.34959,4.696382 8.20349,6.586001 l 3.37075,3.435672 0.37452,170.939749 0.37453,170.93975 -3.37074,3.16886 c -3.97512,3.73704 -11.73406,8.01557 -16.47919,9.08714 -6.60037,1.49054 -7.91137,1.50849 -10.89212,0.14914 z"
     id="path4168"
     inkscape:connector-curvature="0"
     transform="scale(0.15,0.15)" /><path
     style="opacity:1;fill:#f2f2f2;fill-opacity:1;stroke:#f2f2f2;stroke-width:0.74905378;stroke-opacity:1"
     d="m 253.3037,437.78021 c -6.25506,-3.96029 -22.5852,-17.41117 -68.12328,-56.11206 -29.86047,-25.37715 -43.85559,-36.98694 -45.91463,-38.0889 -0.7498,-0.40129 -16.68046,-1.25911 -35.40146,-1.90628 -38.076267,-1.31628 -63.069828,-2.47475 -68.120144,-3.15743 -4.462971,-0.60329 -7.197561,-2.02723 -11.072954,-5.76586 -2.187434,-2.11023 -3.560415,-4.28176 -4.316085,-6.82638 -1.646949,-5.54587 -2.532887,-26.60954 -3.671549,-87.29303 -0.944292,-50.32483 -0.928206,-54.4101 0.219411,-55.72094 3.817133,-4.36003 13.073292,-11.69622 15.617362,-12.37791 4.09319,-1.09679 22.060646,-2.13216 60.151904,-3.46623 46.039235,-1.61245 47.022695,-1.70863 51.894625,-5.07529 2.15044,-1.48601 15.70748,-12.70544 30.12677,-24.93205 54.56152,-46.264601 68.39634,-57.637858 77.33109,-63.571902 l 5.42193,-3.600995 5.81387,0.515745 c 6.82514,0.605452 11.15042,2.832259 18.31687,9.430169 l 4.4748,4.119796 0.35389,171.533317 0.35389,171.53332 -3.85798,3.11713 c -7.26358,5.86874 -16.78697,9.9609 -23.23137,9.98242 -1.70644,0.006 -3.9924,-0.83324 -6.36696,-2.33664 z"
     id="path4170"
     inkscape:connector-curvature="0"
     transform="scale(0.15,0.15)" /><path
     style="opacity:1;fill:#f2f2f2;fill-opacity:1;stroke:#f2f2f2;stroke-width:0.74905378;stroke-opacity:1"
     d="m 254.80223,439.02433 c -4.86606,-2.4303 -20.08291,-14.76921 -62.88033,-50.98789 -41.45407,-35.08183 -51.03163,-42.97171 -53.13378,-43.77094 -1.51801,-0.57715 -19.62208,-1.48322 -60.722394,-3.03904 -36.687395,-1.38877 -43.654628,-1.99072 -48.107416,-4.15635 -4.517682,-2.19717 -8.869178,-6.89872 -9.951107,-10.75159 -1.870805,-6.66216 -3.207956,-41.22542 -4.218825,-109.05 l -0.502586,-33.72115 5.09875,-4.67207 c 7.326074,-6.71302 10.93293,-8.90517 15.544589,-9.44761 6.180924,-0.72701 28.235982,-1.83817 61.611993,-3.1041 34.177136,-1.29631 40.881116,-1.84142 44.623596,-3.62838 2.42399,-1.1574 15.98922,-12.36009 63.60524,-52.52766 25.1691,-21.231967 38.56089,-32.006858 46.12034,-37.107921 l 5.79885,-3.91302 5.54157,0.777612 c 7.19794,1.010038 12.16936,3.540327 18.33243,9.330601 l 4.99819,4.695841 0.45135,171.708227 0.45134,171.70823 -4.70047,3.46391 c -5.92684,4.36765 -12.09049,7.4968 -17.58659,8.92836 -5.61875,1.4635 -6.0312,1.43428 -10.37474,-0.73506 z"
     id="path4172"
     inkscape:connector-curvature="0"
     transform="scale(0.15,0.15)" /><path
     style="opacity:1;fill:#f2f2f2;fill-opacity:1;stroke:#f2f2f2;stroke-width:0.74905378;stroke-opacity:1"
     d="m 255.59147,439.85177 c -5.88163,-2.75993 -16.76974,-11.55625 -71.53463,-57.79168 -33.57826,-28.34855 -43.27917,-36.28911 -45.24904,-37.03805 -1.7329,-0.65886 -19.53375,-1.61187 -64.112817,-3.43246 -31.870053,-1.30156 -40.133246,-2.04502 -44.577146,-4.01077 -3.505259,-1.55054 -8.008468,-5.73445 -9.706672,-9.01841 -2.469226,-4.77496 -3.641772,-28.14807 -4.955896,-98.78908 l -0.854561,-45.93711 2.144884,-2.24936 c 3.716149,-3.89716 11.916944,-10.30374 14.652451,-11.4467 3.414704,-1.42675 16.706196,-2.33517 60.899705,-4.16222 37.230082,-1.53917 42.145492,-1.8665 47.190392,-3.14256 3.65569,-0.92466 9.69046,-5.72096 52.05924,-41.37546 35.55228,-29.918236 49.70425,-41.440662 59.35673,-48.327785 l 6.54844,-4.67237 5.43642,0.902076 c 7.32508,1.215465 11.90389,3.50537 18.76918,9.386625 l 5.76811,4.941345 0,111.054849 c 0,61.08017 0.22371,138.37366 0.49712,171.76331 l 0.49712,60.70848 -4.80418,3.54087 c -6.11488,4.50692 -13.41839,8.19219 -19.20918,9.69274 -5.4864,1.42166 -4.3517,1.49841 -8.81567,-0.59628 z"
     id="path4174"
     inkscape:connector-curvature="0"
     transform="scale(0.15,0.15)" /><path
     style="opacity:1;fill:#f2f2f2;fill-opacity:1;stroke:#f2f2f2;stroke-width:0.74905378;stroke-opacity:1"
     d="m 253.80592,439.42177 c -4.74434,-2.67165 -21.22053,-15.8656 -48.77558,-39.0589 -32.88616,-27.68057 -60.12792,-50.41583 -63.14009,-52.69508 -3.45398,-2.61356 -5.47103,-2.82007 -43.974599,-4.5023 -57.460082,-2.51044 -63.779549,-3.027 -68.810152,-5.62451 -3.559436,-1.8379 -7.984174,-6.46723 -9.376619,-9.8102 -2.268777,-5.44685 -3.505201,-31.2502 -5.005243,-104.45611 l -0.813478,-39.69985 4.562394,-4.22434 c 6.52474,-6.04129 12.156546,-9.7106 16.008781,-10.43028 4.59344,-0.85814 22.864698,-1.96496 54.820198,-3.32083 39.560978,-1.67857 48.047028,-2.36067 51.765698,-4.16084 3.83662,-1.85728 12.54667,-8.85174 47.48393,-38.13116 40.11026,-33.614693 52.51267,-43.679707 64.97085,-52.726241 l 3.92297,-2.84867 5.81473,1.194928 c 7.51228,1.543773 12.00616,3.858532 19.1326,9.855014 l 5.783,4.866059 0,133.54675 c 0,73.45071 0.22313,150.75348 0.49583,171.78394 l 0.49582,38.23719 -4.80288,3.56858 c -6.66061,4.94889 -17.726,10.11432 -22.61037,10.55475 -3.35009,0.30207 -4.49703,0.0253 -7.94779,-1.9179 z"
     id="path4176"
     inkscape:connector-curvature="0"
     transform="scale(0.15,0.15)" /><path
     style="opacity:1;fill:#f2f2f2;fill-opacity:1;stroke:#f2f2f2;stroke-width:0.74905378;stroke-opacity:1"
     d="m 257.33927,441.64094 c -5.00049,-1.51004 -15.10297,-9.50565 -69.53716,-55.03523 -49.33961,-41.26838 -45.87393,-38.45295 -48.88008,-39.709 -2.96662,-1.23953 -14.1033,-2.00439 -60.856304,-4.17961 -43.741995,-2.03512 -47.162257,-2.53446 -53.384774,-7.79389 -4.063191,-3.43431 -5.99629,-7.57048 -6.845061,-14.64607 -1.506581,-12.5593 -3.329322,-67.86369 -3.985553,-120.92705 l -0.203239,-16.43404 6.366958,-5.50589 c 3.501826,-3.02824 8.052328,-6.32316 10.112226,-7.32206 4.685214,-2.27198 10.730729,-2.79847 55.804507,-4.85986 35.87256,-1.64058 49.04878,-2.56599 53.18282,-3.73518 3.68988,-1.04358 8.80651,-5.0786 53.18282,-41.94036 45.30101,-37.629888 48.03985,-39.860628 57.83562,-47.106134 l 7.27449,-5.380627 5.45942,1.215413 c 7.53087,1.676572 13.42774,4.726966 20.25324,10.476804 l 5.80517,4.890304 0.17912,155.76703 c 0.0985,85.67186 0.18278,163.08425 0.18726,172.02751 l 0.008,16.26049 -3.74527,2.84762 c -5.16256,3.92521 -15.76414,9.30987 -21.03032,10.68154 -2.40775,0.62714 -4.55972,1.11128 -4.78215,1.07587 -0.22242,-0.0354 -1.30328,-0.33582 -2.40189,-0.66758 l -2e-5,0 z"
     id="path4178"
     inkscape:connector-curvature="0"
     transform="scale(0.15,0.15)" /></svg>