<svg xmlns:rdf="http://www.w3.org/1999/02/22-rdf-syntax-ns#" xmlns="http://www.w3.org/2000/svg" height="32" width="32" version="1" xmlns:cc="http://creativecommons.org/ns#" xmlns:dc="http://purl.org/dc/elements/1.1/">
 <path d="m16 4c-6.627 0-12 5.373-12 12s5.373 12 12 12 12-5.373 12-12-5.373-12-12-12zm1.375 1.53c2.06 0.047 3.88 1.284 5.72 2.095l2.968 4.11-0.47 1.765 0.907 0.563-0.015 2.093c-0.02 0.6 0.008 1.2-0.016 1.797-0.286 1.136-0.945 2.17-1.5 3.203-0.378 0.186 0.034-1.23-0.204-1.672 0.055-1.017-0.807-0.97-1.39-0.405-0.722 0.42-2.308 0.547-2.36-0.595-0.41-1.37-0.06-2.833 0.5-4.11l-0.92-1.124 0.326-2.89-1.47-1.484 0.346-1.625-1.72-0.968c-0.338-0.266-0.983-0.37-1.124-0.734 0.14-0.008 0.284-0.02 0.422-0.016zm-4.22 0.017c0.055 0.008 0.12 0.045 0.22 0.125 0.58 0.318-0.14 0.68-0.312 1.016-0.926 0.626 0.284 1.138 0.687 1.64 0.646-0.185 1.292-1.108 2.234-0.828 1.206-0.376 1.014 1.01 1.703 1.625 0.09 0.29 1.51 1.232 0.657 0.922-0.702-0.544-1.483-0.503-1.985 0.28-1.356 0.736-0.553-1.413-1.203-1.936-0.982-1.095-0.57 0.82-0.687 1.392-0.64-0.014-1.83-0.492-2.485 0.28l0.64 1.048 0.766-1.172c0.187-0.424 0.42 0.33 0.626 0.47 0.246 0.472 1.41 1.273 0.532 1.5-1.304 0.722-2.33 1.82-3.438 2.796-0.374 0.788-1.137 0.698-1.61 0.047-1.143-0.703-1.058 1.126-1 1.813l1.002-0.626v1.03c-0.028 0.196-0.004 0.4-0.016 0.595-0.7 0.732-1.406-1.027-2.015-1.422l-0.046-2.578c0.022-0.724-0.13-1.466 0.016-2.172 1.377-1.48 2.777-3.01 3.593-4.89h1.344c0.94 0.454 0.404-1.01 0.78-0.954zm-1.983 13.406a0.955 0.955 0 0 1 0.547 0.125c1.264 0.18 2.21 1.1 3.218 1.797 0.803 0.796 2.542 0.54 2.734 1.89-0.292 1.464-1.732 2.25-3 2.766a3.132 3.132 0 0 1 -1.015 0.377c-1.176 0.293-1.684-0.912-1.922-1.814-0.532-1.114-1.862-1.958-1.672-3.327 0.03-0.68 0.403-1.738 1.11-1.813z" fill="#f2f2f2"/>
</svg>
