<svg xmlns:rdf="http://www.w3.org/1999/02/22-rdf-syntax-ns#" xmlns="http://www.w3.org/2000/svg" height="32" width="32" version="1.1" xmlns:cc="http://creativecommons.org/ns#" xmlns:dc="http://purl.org/dc/elements/1.1/">
 <path d="m26.72 1.002c-4.714 0.76-11.023 1.542-15.724 2.344-1.245 0.607-0.965 2.17-1.02 3.306v15.192c-2.624-0.493-5.823 1.675-5.962 5.107-0.226 2.138 1.67 3.998 3.73 4.048 3.69 0.09 6.212-2.358 6.252-5.454-0.04-5.2 0.012-10.4 0-15.6 0.57-0.04 9.222-1.692 10-1.802v11.683c-2.293-0.55-5.224 0.958-5.95 4.035-0.307 1.725 0.272 3.89 2.023 4.62 3.415 1.57 8.105-1.61 7.914-5.342-0.053-6.933 0.044-13.868 0-20.8-0.09-0.653-0.532-1.383-1.265-1.336z" fill="#f2f2f2"/>
</svg>
