<svg xmlns:rdf="http://www.w3.org/1999/02/22-rdf-syntax-ns#" xmlns="http://www.w3.org/2000/svg" height="32" width="32" version="1" xmlns:cc="http://creativecommons.org/ns#" xmlns:dc="http://purl.org/dc/elements/1.1/">
 <path style="block-progression:tb;text-transform:none;text-indent:0" d="m2.688 4c-0.395 0.076-0.695 0.467-0.688 0.875v22.25c0 0.46 0.424 0.876 0.875 0.876h26.25c0.45 0 0.875-0.416 0.875-0.874v-21.907c0-0.673-0.53-1.223-1.03-1.22zm1.312 2h24v10l-2-2-6 8-6-6-8 8h-2zm5 2a3 3 0 1 0 0 6 3 3 0 0 0 0 -6z" fill="#f2f2f2"/>
</svg>
