<svg xmlns:rdf="http://www.w3.org/1999/02/22-rdf-syntax-ns#" xmlns="http://www.w3.org/2000/svg" height="16" width="16" version="1.1" xmlns:cc="http://creativecommons.org/ns#" xmlns:dc="http://purl.org/dc/elements/1.1/" viewBox="0 0 16 16">
 <path d="m8 1c-1.108 0-2 0.892-2 2v4c0 1.108 0.892 2 2 2s2-0.892 2-2v-4c0-1.108-0.892-2-2-2zm-4 4c-0.554 0-1 0.446-1 1v1a4.988 4.988 0 0 0 4 4.9v1.1h-2v2h6v-2h-2v-1.1c2.287-0.46 4-2.473 4-4.9v-1c0-0.554-0.446-1-1-1s-1 0.446-1 1v1c0 1.662-1.338 3-3 3s-3-1.338-3-3v-1c0-0.554-0.446-1-1-1z" fill-rule="evenodd" fill="#f2f2f2"/>
</svg>
