<?xml version="1.0" encoding="UTF-8" standalone="no"?>
<svg
   xmlns:dc="http://purl.org/dc/elements/1.1/"
   xmlns:cc="http://creativecommons.org/ns#"
   xmlns:rdf="http://www.w3.org/1999/02/22-rdf-syntax-ns#"
   xmlns:svg="http://www.w3.org/2000/svg"
   xmlns="http://www.w3.org/2000/svg"
   xmlns:sodipodi="http://sodipodi.sourceforge.net/DTD/sodipodi-0.dtd"
   xmlns:inkscape="http://www.inkscape.org/namespaces/inkscape"
   height="16"
   width="16"
   version="1.1"
   viewBox="0 0 16 16"
   id="svg4"
   sodipodi:docname="clippy.svg"
   inkscape:version="0.92.1 r">
  <metadata
     id="metadata10">
    <rdf:RDF>
      <cc:Work
         rdf:about="">
        <dc:format>image/svg+xml</dc:format>
        <dc:type
           rdf:resource="http://purl.org/dc/dcmitype/StillImage" />
        <dc:title></dc:title>
      </cc:Work>
    </rdf:RDF>
  </metadata>
  <defs
     id="defs8" />
  <sodipodi:namedview
     pagecolor="#ffffff"
     bordercolor="#666666"
     borderopacity="1"
     objecttolerance="10"
     gridtolerance="10"
     guidetolerance="10"
     inkscape:pageopacity="0"
     inkscape:pageshadow="2"
     inkscape:window-width="2560"
     inkscape:window-height="1377"
     id="namedview6"
     showgrid="false"
     inkscape:zoom="14.75"
     inkscape:cx="0.54237288"
     inkscape:cy="8"
     inkscape:window-x="1680"
     inkscape:window-y="0"
     inkscape:window-maximized="1"
     inkscape:current-layer="svg4" />
  <path
     opacity=".5"
     d="m13 15h-11l0.0005-10h11v3.0002l1-0.0004 0.0005-5.0001c0.000058-0.5834-0.4165-1.0002-1.0005-1.0001l-3.467 0.0005c0.0008-1.183-0.9492-2.0001-2.1325-2.0001s-2.1333 0.8171-2.1333 2.0004h-3.2c-0.5834 0-1.0662 0.4166-1.0662 0.9999l-0.0005 12c-0.0000243 0.584 0.4833 1 1.0667 1l10.933-0.0005c0.584-0.001 1-0.416 1-1v-3h-1zm-8.8005-12h1.0672c0.5833 0 1.0666-0.4162 1.0666-0.9996 0-0.5833 0.4834-0.9337 1.0667-0.9337s1.0667 0.3504 1.0667 0.9337c0 0.5834 0.5333 0.9996 1.0666 0.9996h1.2667c0.517 0 1.2 0.4166 1.2 1h-9c-0.0004-0.65 0.5988-1 1.1988-1zm-1.1995 8h2v-1h-2zm7.9998-2v-2l-4 3 3.9998 3v-2l5.0002-0.00005v-2l-4.9998-0.00005zm-8 4h4v-1h-4zm6-7h-6v1h6zm-3 2h-3v1h3z"
     id="path2"
     style="opacity:1;fill:#f2f2f2;fill-opacity:1" />
</svg>
