<?xml version="1.0" encoding="UTF-8" standalone="no"?>
<svg
   xmlns:dc="http://purl.org/dc/elements/1.1/"
   xmlns:cc="http://creativecommons.org/ns#"
   xmlns:rdf="http://www.w3.org/1999/02/22-rdf-syntax-ns#"
   xmlns:svg="http://www.w3.org/2000/svg"
   xmlns="http://www.w3.org/2000/svg"
   xmlns:sodipodi="http://sodipodi.sourceforge.net/DTD/sodipodi-0.dtd"
   xmlns:inkscape="http://www.inkscape.org/namespaces/inkscape"
   height="16"
   width="16"
   version="1.1"
   viewBox="0 0 16 16"
   id="svg4"
   sodipodi:docname="confirm.svg"
   inkscape:version="0.92.1 r">
  <metadata
     id="metadata10">
    <rdf:RDF>
      <cc:Work
         rdf:about="">
        <dc:format>image/svg+xml</dc:format>
        <dc:type
           rdf:resource="http://purl.org/dc/dcmitype/StillImage" />
        <dc:title></dc:title>
      </cc:Work>
    </rdf:RDF>
  </metadata>
  <defs
     id="defs8" />
  <sodipodi:namedview
     pagecolor="#ffffff"
     bordercolor="#666666"
     borderopacity="1"
     objecttolerance="10"
     gridtolerance="10"
     guidetolerance="10"
     inkscape:pageopacity="0"
     inkscape:pageshadow="2"
     inkscape:window-width="2560"
     inkscape:window-height="1377"
     id="namedview6"
     showgrid="false"
     inkscape:zoom="14.75"
     inkscape:cx="0.54237288"
     inkscape:cy="8"
     inkscape:window-x="1680"
     inkscape:window-y="0"
     inkscape:window-maximized="1"
     inkscape:current-layer="svg4" />
  <path
     d="m8.6328 0.63477c-0.2556 0-0.5112 0.0971-0.707 0.29296-0.3918 0.39177-0.3918 1.0224 0 1.4141l4.6582 4.6582h-11.584c-0.554 0-1 0.446-1 1s0.446 1 1 1h11.586l-4.6583 4.658c-0.3917 0.392-0.3917 1.023 0 1.414 0.3918 0.392 1.0224 0.392 1.4141 0l6.3632-6.363v-0.002h0.002c0.093-0.093 0.166-0.2041 0.217-0.3281l0.002-0.0019v-0.002c0.02-0.0508 0.019-0.1053 0.031-0.1582 0.016-0.0718 0.043-0.14 0.043-0.2168 0-0.0714-0.027-0.1341-0.041-0.2012-0.012-0.0578-0.012-0.1202-0.033-0.1738v-0.002c-0.001-0.0013-0.002-0.0026-0.002-0.0039-0.051-0.1233-0.124-0.2335-0.217-0.3261-0.001-0.0007-0.001-0.0013-0.002-0.002l-6.3632-6.3633c-0.1959-0.19583-0.4534-0.29293-0.709-0.29293z"
     fill-rule="evenodd"
     id="path2"
     style="fill:#f2f2f2;fill-opacity:1" />
</svg>
