<svg xmlns:rdf="http://www.w3.org/1999/02/22-rdf-syntax-ns#" xmlns="http://www.w3.org/2000/svg" height="16" width="16" version="1" xmlns:cc="http://creativecommons.org/ns#" xmlns:dc="http://purl.org/dc/elements/1.1/">
 <path style="block-progression:tb;text-transform:none;text-indent:0" d="m2.35 1.002a0.45 0.45 0 0 0 -0.35 0.438v13.12c0 0.232 0.206 0.44 0.432 0.44h11.138a0.452 0.452 0 0 0 0.432 -0.438v-10.142a0.458 0.458 0 0 0 -0.055 -0.192l-3.312-3.2a0.427 0.427 0 0 0 -0.135 -0.026h-8.07a0.424 0.424 0 0 0 -0.08 0zm1.65 1.998h6v1h-6v-1zm0 3h5v1h-5v-1zm0 3h8v1h-8v-1zm0 3h4v1h-4v-1z" fill="#f2f2f2"/>
</svg>
