<svg xmlns:rdf="http://www.w3.org/1999/02/22-rdf-syntax-ns#" xmlns="http://www.w3.org/2000/svg" height="34.133" width="34.133" version="1.0" xmlns:cc="http://creativecommons.org/ns#" xmlns:dc="http://purl.org/dc/elements/1.1/">
 <path d="m3.2 2.1333c-0.5909 0-1.0667 0.4758-1.0667 1.0667v2.1333c0 0.591 0.4758 1.0667 1.0667 1.0667h27.733c0.591 0 1.067-0.4757 1.067-1.0667v-2.1333c0-0.5909-0.476-1.0667-1.067-1.0667zm0 8.5333c-0.59093 0-1.0667 0.47573-1.0667 1.0667v2.1333c0 0.59093 0.47573 1.0667 1.0667 1.0667h19.2c0.59093 0 1.0667-0.47573 1.0667-1.0667v-2.1333c0-0.59093-0.47573-1.0667-1.0667-1.0667zm0 8.533c-0.59093 0-1.0667 0.47573-1.0667 1.0667v2.133c0 0.59093 0.47573 1.0667 1.0667 1.0667h25.6c0.59093 0 1.0667-0.47573 1.0667-1.0667v-2.133c0-0.591-0.476-1.067-1.067-1.067zm0 8.5333c-0.59093 0-1.0667 0.47573-1.0667 1.0667v2.1333c0 0.591 0.4758 1.067 1.0667 1.067h12.8c0.59093 0 1.0667-0.47573 1.0667-1.0667v-2.133c0-0.59093-0.47573-1.0667-1.0667-1.0667z" stroke-width="1.0667" fill="#f2f2f2"/>
</svg>
