<?xml version="1.0" encoding="UTF-8" standalone="no"?>
<svg
   xmlns:dc="http://purl.org/dc/elements/1.1/"
   xmlns:cc="http://creativecommons.org/ns#"
   xmlns:rdf="http://www.w3.org/1999/02/22-rdf-syntax-ns#"
   xmlns:svg="http://www.w3.org/2000/svg"
   xmlns="http://www.w3.org/2000/svg"
   xmlns:sodipodi="http://sodipodi.sourceforge.net/DTD/sodipodi-0.dtd"
   xmlns:inkscape="http://www.inkscape.org/namespaces/inkscape"
   height="16"
   width="16"
   version="1"
   id="svg4"
   sodipodi:docname="logout.svg"
   inkscape:version="0.92.1 r">
  <metadata
     id="metadata10">
    <rdf:RDF>
      <cc:Work
         rdf:about="">
        <dc:format>image/svg+xml</dc:format>
        <dc:type
           rdf:resource="http://purl.org/dc/dcmitype/StillImage" />
        <dc:title></dc:title>
      </cc:Work>
    </rdf:RDF>
  </metadata>
  <defs
     id="defs8" />
  <sodipodi:namedview
     pagecolor="#ffffff"
     bordercolor="#666666"
     borderopacity="1"
     objecttolerance="10"
     gridtolerance="10"
     guidetolerance="10"
     inkscape:pageopacity="0"
     inkscape:pageshadow="2"
     inkscape:window-width="2560"
     inkscape:window-height="1377"
     id="namedview6"
     showgrid="false"
     inkscape:zoom="14.75"
     inkscape:cx="0.54237288"
     inkscape:cy="8"
     inkscape:window-x="1680"
     inkscape:window-y="0"
     inkscape:window-maximized="1"
     inkscape:current-layer="svg4" />
  <path
     style="block-progression:tb;text-transform:none;text-indent:0;fill:#f2f2f2;fill-opacity:1"
     d="M8 0c-.47 0-.96.542-.95 1v6c-.007.528.422 1 .95 1s.958-.472.95-1V1A.967.967 0 0 0 8 0zM4.656 2.5a.952.952 0 0 0-.25.094c-3 1.57-3.918 4.798-3.125 7.47A6.907 6.907 0 0 0 7.97 15c3.358 0 5.876-2.15 6.718-4.78.84-2.634-.058-5.825-3.125-7.595-.434-.254-1.06-.09-1.313.343-.254.434-.09 1.06.344 1.313 2.39 1.38 2.882 3.495 2.28 5.376-.6 1.88-2.343 3.437-4.905 3.437-2.577 0-4.3-1.65-4.876-3.594-.578-1.944-.047-4.05 2.187-5.22a.98.98 0 0 0 .457-1.105.98.98 0 0 0-.987-.675.978.978 0 0 0-.094 0z"
     color="#000"
     id="path2" />
</svg>
