<svg xmlns:rdf="http://www.w3.org/1999/02/22-rdf-syntax-ns#" xmlns="http://www.w3.org/2000/svg" height="16" width="16" version="1" xmlns:cc="http://creativecommons.org/ns#" xmlns:dc="http://purl.org/dc/elements/1.1/">
 <path style="block-progression:tb;text-transform:none;text-indent:0" d="m8 0c-0.47 0-0.96 0.542-0.95 1v6c-0.007 0.528 0.422 1 0.95 1s0.958-0.472 0.95-1v-6a0.967 0.967 0 0 0 -0.95 -1zm-3.344 2.5a0.952 0.952 0 0 0 -0.25 0.094c-3 1.57-3.918 4.798-3.125 7.47a6.907 6.907 0 0 0 6.689 4.936c3.358 0 5.876-2.15 6.718-4.78 0.84-2.634-0.058-5.825-3.125-7.595-0.434-0.254-1.06-0.09-1.313 0.343-0.254 0.434-0.09 1.06 0.344 1.313 2.39 1.38 2.882 3.495 2.28 5.376-0.6 1.88-2.343 3.437-4.905 3.437-2.577 0-4.3-1.65-4.876-3.594-0.578-1.944-0.047-4.05 2.187-5.22a0.98 0.98 0 0 0 0.457 -1.105 0.98 0.98 0 0 0 -0.987 -0.675 0.978 0.978 0 0 0 -0.094 0z" fill="#f2f2f2"/>
</svg>
