<svg xmlns:rdf="http://www.w3.org/1999/02/22-rdf-syntax-ns#" xmlns="http://www.w3.org/2000/svg" height="16" width="16" version="1.1" xmlns:cc="http://creativecommons.org/ns#" xmlns:dc="http://purl.org/dc/elements/1.1/">
 <g fill="#f2f2f2">
  <path style="block-progression:tb;text-transform:none;text-indent:0" d="m5.99 5.318a3.332 3.332 0 0 0 0 4.693c0.116 0.118 0.226 0.22 0.355 0.315l1.383-1.383a1.4 1.4 0 0 1 -0.398 -2.283l3.352-3.352c0.568-0.57 1.442-0.57 2.01 0s0.57 1.442 0 2.01l-1.13 1.132c0.34 0.725 0.464 1.518 0.377 2.304l2.094-2.095c1.288-1.29 1.288-3.406 0-4.694s-3.405-1.288-4.693 0l-3.35 3.353z"/>
  <path style="block-progression:tb;text-transform:none;text-indent:0" d="m10.01 10.68a3.332 3.332 0 0 0 0 -4.692 3.126 3.126 0 0 0 -0.355 -0.314l-1.383 1.383a1.4 1.4 0 0 1 0.398 2.283l-3.35 3.35c-0.57 0.57-1.444 0.57-2.013 0.002s-0.568-1.442 0-2.01l1.133-1.132a4.288 4.288 0 0 1 -0.38 -2.305l-2.093 2.095c-1.288 1.29-1.288 3.405 0 4.693s3.405 1.29 4.693 0l3.35-3.352z"/>
 </g>
</svg>
