<svg xmlns:rdf="http://www.w3.org/1999/02/22-rdf-syntax-ns#" xmlns="http://www.w3.org/2000/svg" height="16" width="16" version="1" xmlns:cc="http://creativecommons.org/ns#" xmlns:dc="http://purl.org/dc/elements/1.1/">
 <path d="m-62.897-32.993h163.31v97.986h-163.31z" fill="none"/>
 <path style="text-decoration-color:#000;block-progression:tb;isolation:auto;mix-blend-mode:normal;text-indent:0;text-decoration-line:none;text-transform:none;text-decoration-style:solid" d="m8 0c-4.406 0-8 3.594-8 8s3.594 8 8 8 8-3.594 8-8-3.594-8-8-8zm0 2c3.326 0 6 2.674 6 6s-2.674 6-6 6-6-2.674-6-6 2.674-6 6-6zm-0.44 0.932a0.617 0.617 0 0 0 -0.605 0.613l-0.852 4.44v0.015c-0.183 0.755 0.337 1 0.917 1.352h0.005l2.998 1.58c0.653 0.502 1.407-0.476 0.754-0.98l-1.777-1.942v-0.01l-0.81-4.45a0.617 0.617 0 0 0 -0.63 -0.618z" white-space="normal" fill="#f2f2f2"/>
</svg>
