<?xml version="1.0" encoding="UTF-8" standalone="no"?>
<svg
   xmlns:dc="http://purl.org/dc/elements/1.1/"
   xmlns:cc="http://creativecommons.org/ns#"
   xmlns:rdf="http://www.w3.org/1999/02/22-rdf-syntax-ns#"
   xmlns:svg="http://www.w3.org/2000/svg"
   xmlns="http://www.w3.org/2000/svg"
   xmlns:sodipodi="http://sodipodi.sourceforge.net/DTD/sodipodi-0.dtd"
   xmlns:inkscape="http://www.inkscape.org/namespaces/inkscape"
   version="1.1"
   xml:space="preserve"
   height="24"
   width="24"
   enable-background="new 0 0 32 32"
   y="0px"
   x="0px"
   viewBox="0 0 7.68 7.68"
   id="svg2"
   inkscape:version="0.91 r13725"
   sodipodi:docname="repeat.svg"><defs
     id="defs10" /><sodipodi:namedview
     pagecolor="#ffffff"
     bordercolor="#666666"
     borderopacity="1"
     objecttolerance="10"
     gridtolerance="10"
     guidetolerance="10"
     inkscape:pageopacity="0"
     inkscape:pageshadow="2"
     inkscape:window-width="3200"
     inkscape:window-height="1683"
     id="namedview8"
     showgrid="false"
     inkscape:zoom="9.8333333"
     inkscape:cx="-17.898305"
     inkscape:cy="12"
     inkscape:window-x="0"
     inkscape:window-y="0"
     inkscape:window-maximized="1"
     inkscape:current-layer="svg2" /><metadata
     id="metadata4"><rdf:RDF><cc:Work
         rdf:about=""><dc:format>image/svg+xml</dc:format><dc:type
           rdf:resource="http://purl.org/dc/dcmitype/StillImage" /><dc:title></dc:title></cc:Work></rdf:RDF></metadata><path
     d="M5.9577,1.5349c-0.5567-0.5117-1.2988-0.82473-2.1127-0.82473-1.7231,0-3.125,1.4018-3.125,3.1248,0,1.7232,1.4019,3.125,3.125,3.125,0.86018,0,1.6402-0.34935,2.2058-0.91358l-0.6184-0.6184c-0.4072,0.4057-0.9685,0.657-1.5874,0.657-1.2406,0-2.25-1.0093-2.25-2.2499s1.0094-2.2499,2.25-2.2499c0.57275,0,1.0958,0.21543,1.4934,0.56905l-0.7434,0.7434h2.1249v-2.1249l-0.76233,0.76233z"
     id="path6"
     style="fill:#f2f2f2;fill-opacity:1" /></svg>