<?xml version="1.0" encoding="UTF-8" standalone="no"?>
<svg xmlns="http://www.w3.org/2000/svg" height="16" width="16" version="1.1" viewBox="0 0 16 16">
 <path d="m12.986 1.0117v.002c-.255 0-.511.0952-.707.291l-9.986 9.9843c-.3918.392-.3918 1.024 0 1.416.3917.392 1.0242.392 1.416 0l9.984-9.9862c.392-.392.392-1.0223 0-1.4141-.196-.1958-.451-.293-.707-.293zm-10.986.9883c-.554 0-1 .446-1 1v8c0 .152.0393.293.0996.422.0909-.308.2469-.598.4863-.838v-.002l1.4141-1.414v-5.168h5.1699l2.0001-2h-8.17zm12.893.5664c-.09.3155-.248.6146-.493.8594l-1.4 1.4004v5.1738h-5.1719l-2 2h1.1719v1h-2v2h6v-2h-2v-1h5c.554 0 1-.446 1-1v-8c0-.1573-.043-.3014-.107-.4336z" fill-rule="evenodd" fill="#f2f2f2"/>
</svg>
