<svg xmlns:rdf="http://www.w3.org/1999/02/22-rdf-syntax-ns#" xmlns="http://www.w3.org/2000/svg" height="16" width="16" version="1" xmlns:cc="http://creativecommons.org/ns#" xmlns:dc="http://purl.org/dc/elements/1.1/">
 <path d="m-62.897-32.993h163.31v97.986h-163.31z" fill="none"/>
 <path d="m6 1a5 5 0 0 0 0 10 4.91 4.91 0 0 0 2.656 -0.78l4.47 4.624a0.463 0.463 0 0 0 0.374 0.156 0.59 0.59 0 0 0 0.406 -0.188l0.938-1.062c0.192-0.22 0.195-0.536 0-0.72l-4.594-4.404c0.478-0.766 0.75-1.656 0.75-2.626a5 5 0 0 0 -5 -5zm0 2a3 3 0 1 1 0 6 3 3 0 0 1 0 -6z" fill="#f2f2f2"/>
</svg>
