<?xml version="1.0" encoding="UTF-8" standalone="no"?>
<svg
   xmlns:dc="http://purl.org/dc/elements/1.1/"
   xmlns:cc="http://creativecommons.org/ns#"
   xmlns:rdf="http://www.w3.org/1999/02/22-rdf-syntax-ns#"
   xmlns:svg="http://www.w3.org/2000/svg"
   xmlns="http://www.w3.org/2000/svg"
   xmlns:sodipodi="http://sodipodi.sourceforge.net/DTD/sodipodi-0.dtd"
   xmlns:inkscape="http://www.inkscape.org/namespaces/inkscape"
   height="16"
   width="16"
   version="1"
   id="svg4"
   sodipodi:docname="settings.svg"
   inkscape:version="0.92.1 r">
  <metadata
     id="metadata10">
    <rdf:RDF>
      <cc:Work
         rdf:about="">
        <dc:format>image/svg+xml</dc:format>
        <dc:type
           rdf:resource="http://purl.org/dc/dcmitype/StillImage" />
        <dc:title></dc:title>
      </cc:Work>
    </rdf:RDF>
  </metadata>
  <defs
     id="defs8" />
  <sodipodi:namedview
     pagecolor="#ffffff"
     bordercolor="#666666"
     borderopacity="1"
     objecttolerance="10"
     gridtolerance="10"
     guidetolerance="10"
     inkscape:pageopacity="0"
     inkscape:pageshadow="2"
     inkscape:window-width="2560"
     inkscape:window-height="1377"
     id="namedview6"
     showgrid="false"
     inkscape:zoom="14.75"
     inkscape:cx="0.54237288"
     inkscape:cy="8"
     inkscape:window-x="1680"
     inkscape:window-y="0"
     inkscape:window-maximized="1"
     inkscape:current-layer="svg4" />
  <path
     d="M6.938 0A.43.43 0 0 0 6.5.438v1.25a5.818 5.818 0 0 0-1.53.656l-.907-.906a.436.436 0 0 0-.625 0l-1.5 1.5a.436.436 0 0 0 0 .624l.906.907c-.285.48-.514.976-.656 1.53H.938a.43.43 0 0 0-.438.438v2.125C.5 8.81.69 9 .938 9h1.25a5.82 5.82 0 0 0 .656 1.53l-.907.908a.436.436 0 0 0 0 .625l1.5 1.5c.176.176.45.176.625 0l.907-.907c.48.285.976.514 1.53.656v1.25c0 .25.19.438.437.438h2.125a.43.43 0 0 0 .438-.438v-1.25a5.82 5.82 0 0 0 1.53-.657l.907.907c.176.175.45.175.625 0l1.5-1.5a.436.436 0 0 0 0-.625l-.906-.906A5.79 5.79 0 0 0 13.812 9h1.25a.43.43 0 0 0 .438-.438V6.437A.43.43 0 0 0 15.062 6h-1.25a5.79 5.79 0 0 0-.656-1.532l.906-.906a.436.436 0 0 0 0-.625l-1.5-1.5a.436.436 0 0 0-.625 0l-.906.906a5.816 5.816 0 0 0-1.53-.656V.437A.43.43 0 0 0 9.063 0zM8 4.157a3.344 3.344 0 0 1 0 6.686 3.344 3.344 0 0 1 0-6.686z"
     display="block"
     opacity=".5"
     id="path2"
     style="fill:#f2f2f2;fill-opacity:1;opacity:1" />
</svg>
