<svg xmlns:rdf="http://www.w3.org/1999/02/22-rdf-syntax-ns#" xmlns="http://www.w3.org/2000/svg" height="16" width="16" version="1.1" xmlns:cc="http://creativecommons.org/ns#" xmlns:dc="http://purl.org/dc/elements/1.1/">
 <path fill="#f2f2f2" d="m12.228 1a2.457 2.457 0 0 0 -2.46 2.454c0 0.075 0.01 0.15 0.016 0.224l-4.734 2.414a2.445 2.445 0 0 0 -1.596 -0.586 2.453 2.453 0 0 0 -2.454 2.454 2.453 2.453 0 0 0 2.454 2.455 2.45 2.45 0 0 0 1.46 -0.477l4.865 2.474c-0.004 0.044-0.01 0.09-0.01 0.134a2.457 2.457 0 1 0 0.804 -1.818l-4.696-2.4c0.02-0.123 0.035-0.25 0.035-0.378 0-0.072-0.01-0.144-0.015-0.214l4.74-2.414a2.457 2.457 0 1 0 1.591 -4.332z"/>
</svg>
