<svg xmlns:rdf="http://www.w3.org/1999/02/22-rdf-syntax-ns#" xmlns="http://www.w3.org/2000/svg" height="16" width="16" version="1" xmlns:cc="http://creativecommons.org/ns#" xmlns:dc="http://purl.org/dc/elements/1.1/" viewBox="0 0 16 16">
 <path d="m-62.897-32.993h163.31v97.986h-163.31z" fill="none"/>
 <path fill="#f2f2f2" d="m6.186 0.96l-4.806 0.015c-0.273 0-0.347 0.21-0.348 0.346l-0.015 4.802 8.723 8.722a0.498 0.498 0 0 0 0.71 0l4.456-4.457a0.5 0.5 0 0 0 0.002 -0.71v0.01l-8.368-8.37-0.354-0.354zm-2.166 1.854a1.144 1.144 0 0 1 1.143 1.144 1.144 1.144 0 0 1 -1.143 1.142 1.144 1.144 0 0 1 -1.145 -1.143 1.144 1.144 0 0 1 1.145 -1.144z"/>
</svg>
