<?xml version="1.0" encoding="UTF-8" standalone="no"?>
<svg xmlns="http://www.w3.org/2000/svg" height="16" width="16" version="1.1">
 <path d="m8 0a3 3 0 0 0 -2.8281 2.0098 3 3 0 0 0 -.1719 -.0098 3 3 0 0 0 -3 3 3 3 0 0 0 .0059 .1719 3 3 0 0 0 -2.0059 2.8281 3 3 0 0 0 2.0098 2.828 3 3 0 0 0 -.0098 .172 3 3 0 0 0 3 3 3 3 0 0 0 .1719 -.006 3 3 0 0 0 2.8281 2.006 3 3 0 0 0 2.828 -2.01 3 3 0 0 0 .172 .01 3 3 0 0 0 3 -3 3 3 0 0 0 -.006 -.172 3 3 0 0 0 2.006 -2.828 3 3 0 0 0 -2.01 -2.8281 3 3 0 0 0 .01 -.1719 3 3 0 0 0 -3 -3 3 3 0 0 0 -.172 .0059 3 3 0 0 0 -2.828 -2.0059zm-.0352 3.4922c.58455-.00435 1.1821.096216 1.7559.33398.69638.28822 1.2735.7423 1.7246 1.2832l1.055-1.0547v3.375h-3.375l1.125-1.125c-.2925-.3924-.6924-.7131-1.1777-.9141-1.4351-.5944-3.0794.0942-3.6739 1.5293l-1.5644-.6504c.7133-1.7221 2.3772-2.7643 4.1308-2.7773zm-4.4648 5.3437h3.375l-.98438.98438c.2773.3207.6189.5997 1.0371.7737 1.4351.594 3.0793-.095 3.6743-1.5295l1.5625.65039c-.951 2.2961-3.5905 3.3941-5.8867 2.4431-.6318-.261-1.1678-.651-1.5996-1.125l-1.1777 1.178v-3.3751z" fill-rule="evenodd" fill="#1d99f3"/>
</svg>
