<?xml version="1.0" encoding="UTF-8" standalone="no"?>
<svg xmlns="http://www.w3.org/2000/svg" height="16" width="16" version="1.1" viewBox="0 0 16 16">
 <path fill="#f2f2f2" d="m13.486 1.5137c-.255 0-.511.0971-.707.2929l-10.486 10.484c-.3918.392-.3918 1.024 0 1.416.3917.392 1.0242.392 1.416 0l10.484-10.486c.392-.392.392-1.0226 0-1.4144-.196-.1958-.451-.2929-.707-.2929zm-10.486 1.4863c-1.108 0-2 .892-2 2v6c0 .368.1054.706.2773 1.002.0849-.149.1825-.292.3086-.418l8.3457-8.3457c-.2792-.1477-.5926-.2383-.9316-.2383h-6zm12 .8066c-.034.0401-.062.0835-.1.1211l-9.0699 9.0723h3.1699c1.108 0 2-.892 2-2v-1.334l4 3.334v-9.1934z"/>
</svg>
