<svg width="32" height="32" enable-background="new 0 0 595.275 311.111" version="1.1" viewBox="0 0 32 32" xml:space="preserve" xmlns="http://www.w3.org/2000/svg"><rect y="-5.2588e-6" width="32" height="32" rx="5" ry="5" fill="#31363b"/><g transform="matrix(.82281 0 0 .82281 2.9048 2.8509)" fill="#3daee9"><g transform="matrix(1.1903 0 0 1.1903 -2.8168 -2.3667)" fill="#3daee9" fill-rule="evenodd"><circle cx="15.733" cy="15.567" r="7.4333"/><path d="m13.4 6.7h4.8667l-2.4737-4.4227z"/><path d="m20.734 23.807-4.8062 0.76487 3.1381 3.979z"/><path d="m23.891 19.761-2.8911 3.9149 5.0273 0.63741z"/><path d="m25.113 14.566-0.90903 4.781 4.8069-1.6041z"/><path d="m23.028 9.5835 1.9325 4.4665 3.0768-4.0265z"/><path d="m18.64 6.7744 4.1141 2.5998 0.27149-5.0602z"/><path d="m15.483 24.559-4.721-1.1816 1.3259 4.891z"/><path d="m10.485 23.163-3.2222-3.6472-1.6766 4.7821z"/><path d="m6.9874 19.276-0.21411-4.862-4.3096 2.6659z"/><path d="m6.8804 13.94 1.7704-4.5332-5.0196 0.69528z"/><path d="m8.9216 9.2344 4.1789-2.4942-4.3908-2.5299z"/></g></g></svg>
