<svg width="32" height="32" enable-background="new 0 0 595.275 311.111" version="1.1" viewBox="0 0 32 32" xml:space="preserve" xmlns="http://www.w3.org/2000/svg"><rect y="-5.2588e-6" width="32" height="32" rx="5" ry="5" fill="#31363b"/><path d="m7.4286 4.0002c-1.8995 0-3.4286 1.5291-3.4286 3.4285v17.142c0 1.8994 1.5291 3.4285 3.4286 3.4285h17.143c1.899 0 3.428-1.529 3.428-3.429v-14.33l-0.77657 0.77725-4.5274-4.5272 2.4917-2.491h-17.759zm13.553 4.2053 4.5274 4.5272-7.1254 7.1245-7.5266 3 3-7.5265 7.1246-7.1252zm-6.348 7.8752-2.2766 3.7765 1.5 1.5 3.7766-2.2766-3-3z" fill="#3daee9"/></svg>
