<svg width="128" height="128" enable-background="new 0 0 595.275 311.111" version="1.1" viewBox="0 0 128 128" xml:space="preserve" xmlns="http://www.w3.org/2000/svg"><rect y="-7.6294e-6" width="128" height="128" rx="20" ry="20" fill="#31363b" stroke-width="4"/><path d="m62.508 117.91c-3.7675-1.9201-12.139-11.528-19.674-23.056-9.4115-14.306-16.11-28.184-18.205-38.431a39.246 39.246 0 0 1-0.41451-11.099 39.966 40.781 0 0 1 39.755-35.871c3.3457 0 5.4403 0.21818 8.1605 0.64004a40.803 41.632 0 0 1 23.231 14.517 39.552 40.352 0 0 1 7.7387 33.733c-2.2984 9.6079-8.5824 22.416-17.157 35.442-9.2078 13.877-18.619 24.765-21.761 24.765zm3.7675-40.352a26.875 27.421 0 1 0-4.393-54.658 26.875 27.421 0 0 0 4.393 54.658z" fill="#3daee9" stroke-width="7.2732"/></svg>
