<svg width="32" height="32" enable-background="new 0 0 595.275 311.111" version="1.1" viewBox="0 0 32 32" xml:space="preserve" xmlns="http://www.w3.org/2000/svg"><rect y="-5.2588e-6" width="32" height="32" rx="5" ry="5" fill="#31363b"/><path d="m15.627 29.477c-0.94188-0.48003-3.0347-2.882-4.9185-5.764-2.3529-3.5766-4.0275-7.0459-4.5512-9.6079a9.8115 9.8115 0 0 1-0.10363-2.7747 9.9915 10.195 0 0 1 9.9388-8.9678c0.83642 0 1.3601 0.054545 2.0401 0.16001a10.201 10.408 0 0 1 5.8076 3.6293 9.8879 10.088 0 0 1 1.9347 8.4333c-0.57459 2.402-2.1456 5.604-4.2894 8.8605-2.302 3.4693-4.6548 6.1913-5.4403 6.1913zm0.94188-10.088a6.7188 6.8552 0 1 0-1.0983-13.664 6.7188 6.8552 0 0 0 1.0983 13.664z" fill="#3daee9" stroke-width="1.8183"/></svg>
