<svg width="128" height="128" enable-background="new 0 0 595.275 311.111" version="1.1" viewBox="0 0 128 128" xml:space="preserve" xmlns="http://www.w3.org/2000/svg"><rect y="-7.6294e-6" width="128" height="128" rx="20" ry="20" fill="#31363b" stroke-width="4"/><path d="m103.17 25.797c-29.042 28.442-43.956 25.984-81.619 28.878v3.5824l-5.5527 1.8509v7.8016l5.5527 1.8509v4.2591c4.6177 0.52366 8.8422 0.84596 12.777 1.0946-5.9347 10.164-8.2585 19.033-6.1498 22.728 0 0 20.294 9.1405 19.265 0.9553-0.69179-5.5066 1.1911-15.012 3.1445-22.848 18.475 1.0757 30.905 3.8543 52.502 26.191 2.0736-10.623 3.1508-21.26 3.4033-31.883l4.1396-0.9354c2.0111-3.5359 1.6193-7.072 0-10.608l-4.2192-0.9553c-0.37272-10.656-1.5038-21.307-3.244-31.963z" fill="#3daee9" stroke-width=".63687"/></svg>
