<svg width="32" height="32" enable-background="new 0 0 595.275 311.111" version="1.1" viewBox="0 0 32 32" xml:space="preserve" xmlns="http://www.w3.org/2000/svg"><rect y="-5.2588e-6" width="32" height="32" rx="5" ry="5" fill="#31363b"/><path d="m25.793 6.4493c-7.2604 7.1106-10.989 6.496-20.405 7.2195v0.8956l-1.3882 0.46272v1.9504l1.3882 0.46272v1.0648c1.1544 0.13092 2.2106 0.21149 3.1943 0.27366-1.4837 2.5411-2.0646 4.7581-1.5374 5.6821 0 0 5.0734 2.2851 4.8163 0.23882-0.17295-1.3767 0.29777-3.753 0.78614-5.7119 4.6187 0.26892 7.7264 0.96358 13.125 6.5478 0.51839-2.6558 0.78771-5.315 0.85082-7.9708l1.0349-0.23385c0.50276-0.88396 0.40482-1.768 0-2.652l-1.0548-0.23882c-0.09318-2.6641-0.37594-5.3267-0.81101-7.9907z" fill="#3daee9" stroke-width=".15922"/></svg>
