<svg width="128" height="128" enable-background="new 0 0 595.275 311.111" version="1.1" viewBox="0 0 128 128" xml:space="preserve" xmlns="http://www.w3.org/2000/svg" xmlns:xlink="http://www.w3.org/1999/xlink"><rect y="-7.6294e-6" width="128" height="128" rx="20" ry="20" fill="#31363b" stroke-width="4"/><g transform="matrix(3.2 0 0 3.2 9.648 44.8)" fill="#3daee9"><g transform="matrix(1.0141 0 0 1.0661 -.95601 .45958)" fill="#3daee9"><path d="m2.9783-4.3497c-0.012048 0.065182-0.046739 0.13288-0.052437 0.19951-0.025416 5.7491-2.03e-5 11.508 0 17.258 0.00735-5.8242 0.03904-11.633 0.052437-17.457z" enable-background="accumulate" opacity=".7"/><path d="m29.721 13.856c-0.10209 1.4221-1.6322 2.3818-3.0414 2.1946-7.1664-0.0081-14.333-0.0212-21.499-0.04988-1.307-0.08504-2.1828-1.1675-2.2548-2.3443-1.472e-4 0.89735 0.00113 1.7961 0 2.6934-0.19699 1.3429 0.75822 2.7956 2.2548 2.8929 7.1795 0.02871 14.372-0.0081 21.552 0 1.4118 0.18737 2.9391-0.72122 3.0414-2.1448l-0.05244-3.2421z" enable-background="accumulate"/><path d="m5.4429-6.295c-1.2554-0.020612-2.3628 0.77788-2.4645 1.7457-0.030133 5.5429-0.043837 11.066-0.052437 16.609-0.19661 1.09 0.76106 2.2653 2.2548 2.3443 7.1658 0.0233 14.333 0.04322 21.499 0.04988 1.4092 0.15209 2.9393-0.5903 3.0414-1.7457 0.02608-4.7961 0.0516-9.6182 0.05244-14.415l-8.4424 8.0304c-0.62924 0.59853-1.4037 0.81336-2.2024 0.84793-0.38703 0.30129-0.77037 0.5934-1.2585 0.74817-0.66196 0.20988-1.6865 0.29117-2.517-0.49878-0.83048-0.78996-0.74502-1.7645-0.52437-2.3942 0.16271-0.46431 0.46981-0.82893 0.78656-1.1971 0.03634-0.75965 0.2622-1.4964 0.89143-2.0949l8.4424-8.0304c-6.4883-0.012529-13.018 0.00587-19.507 0z" enable-background="accumulate"/><path d="m17.753 2.8819c-0.43438 0.41319-0.54759 0.99039-0.40787 1.5166l-0.18539 0.17635c-0.65733 0.62525-0.92193 1.3803-0.59326 1.6929 0.32867 0.31263 1.1224 0.060939 1.7798-0.56431l0.18539-0.17635c0.55318 0.13291 1.16 0.025218 1.5944-0.38796l11.865-11.286c0.65733-0.62525 0.65733-1.632 0-2.2572-0.65733-0.62525-1.7157-0.62525-2.373 0z" enable-background="accumulate"/></g></g></svg>
