<svg width="128" height="128" enable-background="new 0 0 595.275 311.111" version="1.1" viewBox="0 0 128 128" xml:space="preserve" xmlns="http://www.w3.org/2000/svg"><rect y="-7.6294e-6" width="128" height="128" rx="20" ry="20" fill="#31363b" stroke-width="4"/><g transform="matrix(.1875 0 0 .1875 16 -85.319)" fill="#3daeff"><path d="m51.267 540.49c-28.296 0-51.076 21.64-51.076 48.521v220.38c0 26.881 22.779 48.521 51.076 48.521h58.633l233.82 193.84-75.716-193.84h192.73c28.296 0 51.076-21.64 51.076-48.521v-220.38c0-26.88-22.779-48.521-51.076-48.521zm13.88 41.713h381.7c13.932 0 25.149 8.9754 25.149 20.124v13.092c0 11.148-11.216 20.121-25.149 20.121h-381.7c-13.932 0-25.149-8.9728-25.149-20.121v-13.092c0-11.148 11.216-20.124 25.149-20.124zm0 92.768h381.7c13.932 0 25.149 8.9754 25.149 20.124v13.089c0 11.148-11.216 20.124-25.149 20.124h-381.7c-13.932 0-25.149-8.9754-25.149-20.124v-13.089c0-11.148 11.216-20.124 25.149-20.124zm0 92.005h137.89c13.932 0 25.149 12.246 25.149 23.395v9.8183c0 11.148-11.216 20.124-25.149 20.124h-137.89c-13.932 0-25.149-8.9754-25.149-20.124v-9.8183c0-11.148 11.216-23.395 25.149-23.395z" fill="#3daeff" fill-rule="evenodd" stroke-opacity="0"/></g></svg>
