<svg width="512px" height="512px" enable-background="new 0 0 58 58" version="1.1" viewBox="0 0 58 58" xml:space="preserve" xmlns="http://www.w3.org/2000/svg">
<g fill="#f2f2f2">
	<path d="M54.319,37.839C54.762,35.918,55,33.96,55,32c0-9.095-4.631-17.377-12.389-22.153c-0.473-0.29-1.087-0.143-1.376,0.327   c-0.29,0.471-0.143,1.086,0.327,1.376C48.724,15.96,53,23.604,53,32c0,1.726-0.2,3.451-0.573,5.147C51.966,37.051,51.489,37,51,37   c-3.86,0-7,3.141-7,7s3.14,7,7,7s7-3.141,7-7C58,41.341,56.509,39.024,54.319,37.839z"/>
	<path d="M38.171,54.182C35.256,55.388,32.171,56,29,56c-6.385,0-12.527-2.575-17.017-7.092C13.229,47.643,14,45.911,14,44   c0-3.859-3.14-7-7-7s-7,3.141-7,7s3.14,7,7,7c1.226,0,2.378-0.319,3.381-0.875C15.26,55.136,21.994,58,29,58   c3.435,0,6.778-0.663,9.936-1.971c0.51-0.211,0.753-0.796,0.542-1.307C39.267,54.213,38.681,53.971,38.171,54.182z"/>
	<path d="m4 31.213c0.024 2e-3 0.048 3e-3 0.071 3e-3 0.521 0 0.959-0.402 0.997-0.93 0.712-10.089 7.586-18.52 17.22-21.314 0.854 2.902 3.537 5.028 6.712 5.028 3.86 0 7-3.141 7-7s-3.14-7-7-7c-3.851 0-6.985 3.127-6.999 6.975-10.581 2.947-18.15 12.145-18.928 23.171-0.039 0.55 0.376 1.029 0.927 1.067z"/>
</g>
</svg>
