<svg enable-background="new 0 0 299.998 299.998" version="1.1" viewBox="0 0 300 300" xml:space="preserve" xmlns="http://www.w3.org/2000/svg">
		<path d="m150 0c-82.84 0-150 67.158-150 150s67.156 150 150 150 150-67.163 150-150-67.16-150-150-150zm10.358 168.34c-8e-3 0.394-0.067 0.788-0.122 1.183-0.039 0.296-0.057 0.599-0.124 0.89-0.067 0.303-0.182 0.602-0.28 0.905-0.117 0.366-0.226 0.731-0.379 1.076-0.029 0.06-0.039 0.124-0.065 0.184-0.226 0.482-0.488 0.934-0.775 1.362-0.018 0.026-0.042 0.052-0.06 0.078-0.327 0.48-0.7 0.916-1.092 1.325-0.109 0.112-0.22 0.213-0.335 0.319-0.345 0.329-0.708 0.63-1.094 0.905-0.119 0.086-0.233 0.176-0.358 0.259-0.495 0.324-1.014 0.609-1.554 0.843-0.117 0.052-0.239 0.083-0.358 0.13-0.456 0.176-0.918 0.322-1.395 0.433-0.171 0.041-0.34 0.078-0.514 0.109-0.612 0.112-1.232 0.189-1.86 0.189-0.127 0-0.257-0.039-0.384-0.044-0.602-0.023-1.198-0.07-1.771-0.192-0.179-0.039-0.355-0.117-0.534-0.166-0.534-0.145-1.056-0.306-1.554-0.529-0.057-0.029-0.117-0.034-0.174-0.06l-57.515-27.129c-5.182-2.443-7.402-8.626-4.959-13.808 2.443-5.179 8.626-7.402 13.808-4.959l42.716 20.144v-89.535c0-5.729 4.645-10.374 10.374-10.374s10.374 4.645 10.374 10.374v105.9h2e-3c0 0.062-0.018 0.124-0.018 0.187z" fill="#f2f2f2"/>
</svg>
