<svg enable-background="new 0 0 512 512" version="1.1" viewBox="0 0 512 512" xml:space="preserve" xmlns="http://www.w3.org/2000/svg">
		<path d="M507.771,301.803c-0.082-0.198-0.047-0.409-0.135-0.605L415.688,95.563C407.115,76.385,388,64,367.01,64H145    c-21,0-40.115,12.385-48.698,31.563L4.365,301.198c-0.089,0.197-0.053,0.408-0.135,0.605C1.595,307.344,0,313.467,0,320v85.333    C0,428.865,19.135,448,42.667,448h426.667C492.865,448,512,428.865,512,405.333V320C512,313.467,510.405,307.344,507.771,301.803z     M426.667,384c-11.76,0-21.333-9.573-21.333-21.333s9.573-21.333,21.333-21.333S448,350.906,448,362.667S438.427,384,426.667,384z     M61.777,277.333l73.473-164.354c1.719-3.833,5.542-6.313,9.75-6.313h222.01c4.198,0,8.021,2.479,9.729,6.313l73.48,164.354    H61.777z" fill="#f2f2f2"/>
</svg>
