<svg enable-background="new 0 0 512 512" version="1.1" viewBox="0 0 512 512" xml:space="preserve" xmlns="http://www.w3.org/2000/svg">
		<path d="m450.23 224.59 0.01-0.011c-1.918-13.682 1.419 5.14-2.768-18.435l-10.317-1.832c-71.044-12.661-150.5 11.383-201.42 62.206l-0.132 0.132c-13.979 13.979-35.162-7.204-21.219-21.219 45.416-45.429 68.932-107.99 65.483-171.5-0.493-9.074-1.537-18.169-3.145-27.236-1.099-6.198-5.949-11.049-12.149-12.149-17.729-3.153-39.333-4.427-57.433-3.019-116.64 9.298-207.14 106.34-207.14 224.51 0 124.52 100.48 225 225 225 108.07 0 201.16-75.605 222.65-178.39 0.016-0.079 0.04-0.156 0.059-0.234 5.256-25.297 6.207-51.617 2.531-77.826z" fill="#f2f2f2"/>
		<path d="m507.6 148.45-63.657-64.057c-5.861-5.861-15.358-5.861-21.219 0l-98.685 99.085c61.293-18.503 112.2-8.512 139.98-3.595 10.957 1.912 11.775 9.966 13.529 19.844l30.051-30.058c5.864-5.862 5.864-15.358 1e-3 -21.219z" fill="#f2f2f2"/>
</svg>
