<svg xmlns:rdf="http://www.w3.org/1999/02/22-rdf-syntax-ns#" xmlns="http://www.w3.org/2000/svg" height="32" width="32" version="1.1" xmlns:cc="http://creativecommons.org/ns#" xmlns:dc="http://purl.org/dc/elements/1.1/">
 <path fill="#f2f2f2" d="m15.957 31c-0.897 0-1.345-0.448-1.345-1.345l0.103-10.655-9.103 5.69c-0.69 0.482-1.276 0.345-1.76-0.414l-0.516-0.828c-0.483-0.69-0.345-1.276 0.414-1.758l9.414-5.69-9.517-5.69c-0.69-0.413-0.828-1-0.414-1.758l0.62-1.035c0.345-0.55 0.897-0.62 1.656-0.207l9.205 5.69-0.103-10.655c0-0.897 0.448-1.345 1.345-1.345h0.827c0.897 0 1.345 0.448 1.345 1.345l-0.103 10.655 9.103-5.793c0.62-0.345 1.206-0.207 1.758 0.414l0.517 0.828c0.345 0.76 0.207 1.345-0.414 1.76l-9.514 5.791 9.62 5.793c0.69 0.414 0.828 0.966 0.414 1.655l-0.517 0.93c-0.482 0.76-1.102 0.898-1.86 0.415l-9.107-5.793 0.103 10.655c0 0.897-0.45 1.345-1.346 1.345h-0.827"/>
</svg>
