<?xml version="1.0" encoding="UTF-8" standalone="no"?>
<svg
   xmlns:dc="http://purl.org/dc/elements/1.1/"
   xmlns:cc="http://creativecommons.org/ns#"
   xmlns:rdf="http://www.w3.org/1999/02/22-rdf-syntax-ns#"
   xmlns:svg="http://www.w3.org/2000/svg"
   xmlns="http://www.w3.org/2000/svg"
   xmlns:sodipodi="http://sodipodi.sourceforge.net/DTD/sodipodi-0.dtd"
   xmlns:inkscape="http://www.inkscape.org/namespaces/inkscape"
   width="32"
   height="32"
   version="1.1"
   id="svg4"
   sodipodi:docname="social-diaspora.svg"
   inkscape:version="0.92.1 r">
  <metadata
     id="metadata10">
    <rdf:RDF>
      <cc:Work
         rdf:about="">
        <dc:format>image/svg+xml</dc:format>
        <dc:type
           rdf:resource="http://purl.org/dc/dcmitype/StillImage" />
        <dc:title></dc:title>
      </cc:Work>
    </rdf:RDF>
  </metadata>
  <defs
     id="defs8" />
  <sodipodi:namedview
     pagecolor="#ffffff"
     bordercolor="#666666"
     borderopacity="1"
     objecttolerance="10"
     gridtolerance="10"
     guidetolerance="10"
     inkscape:pageopacity="0"
     inkscape:pageshadow="2"
     inkscape:window-width="2560"
     inkscape:window-height="1377"
     id="namedview6"
     showgrid="false"
     inkscape:zoom="34.800781"
     inkscape:cx="16"
     inkscape:cy="16"
     inkscape:window-x="1680"
     inkscape:window-y="0"
     inkscape:window-maximized="1"
     inkscape:current-layer="svg4" />
  <path
     d="M15.957 31c-.897 0-1.345-.448-1.345-1.345L14.715 19l-9.103 5.69c-.69.482-1.276.345-1.76-.414l-.516-.828c-.483-.69-.345-1.276.414-1.758L13.164 16l-9.517-5.69c-.69-.413-.828-1-.414-1.758l.62-1.035c.345-.55.897-.62 1.656-.207L14.714 13l-.103-10.655c0-.897.448-1.345 1.345-1.345h.827c.897 0 1.345.448 1.345 1.345L18.025 13l9.103-5.793c.62-.345 1.206-.207 1.758.414l.517.828c.345.76.207 1.345-.414 1.76L19.475 16l9.62 5.793c.69.414.828.966.414 1.655l-.517.93c-.482.76-1.102.898-1.86.415L18.025 19l.103 10.655c0 .897-.45 1.345-1.346 1.345h-.827"
     opacity=".5"
     id="path2"
     style="fill:#f2f2f2;fill-opacity:1;opacity:1" />
</svg>
