<svg xmlns:rdf="http://www.w3.org/1999/02/22-rdf-syntax-ns#" xmlns="http://www.w3.org/2000/svg" height="32" viewBox="0 0 32 32" width="32" version="1.1" xmlns:cc="http://creativecommons.org/ns#" xmlns:dc="http://purl.org/dc/elements/1.1/">
 <style>.st0{fill-rule:evenodd;clip-rule:evenodd}</style>
 <path fill="#f2f2f2" d="m12.26 1c-1.044 0-2.164 0.12-3.36 0.365-1.207 0.284-2.37 0.885-3.49 1.807-1.634 1.576-2.45 3.33-2.45 5.266 0 1.6 0.576 3.003 1.73 4.21 1.098 1.292 2.697 1.953 4.795 1.98 0.395 0 0.818-0.028 1.266-0.078-0.074 0.207-0.155 0.43-0.24 0.676-0.1 0.23-0.15 0.523-0.15 0.87 0 0.578 0.13 1.075 0.39 1.488 0.222 0.424 0.475 0.823 0.76 1.197-0.92 0.026-2.075 0.142-3.466 0.346-1.405 0.244-2.746 0.73-4.02 1.458-1.138 0.678-1.924 1.465-2.356 2.36-0.447 0.894-0.67 1.71-0.67 2.437 0 1.497 0.688 2.782 2.06 3.857 1.362 1.15 3.422 1.738 6.182 1.763 3.297-0.05 5.82-0.837 7.567-2.363 1.686-1.475 2.53-3.166 2.53-5.076-0.026-1.343-0.333-2.432-0.923-3.266a13.466 13.466 0 0 0 -2.184 -2.247l-1.337-1.096a7.868 7.868 0 0 1 -0.596 -0.672c-0.242-0.27-0.362-0.607-0.362-1.02 0-0.422 0.118-0.793 0.352-1.113 0.2-0.31 0.416-0.584 0.652-0.827 0.41-0.36 0.797-0.712 1.16-1.057 0.33-0.345 0.64-0.723 0.933-1.133 0.6-0.846 0.912-1.974 0.935-3.383 0-0.77-0.087-1.442-0.26-2.018a7.594 7.594 0 0 0 -1.596 -2.633 5.256 5.256 0 0 0 -0.836 -0.673h2.43l2.434-1.425h-7.88zm12.418 0.17v4.134h-4.134v2.003h4.134v4.134h2.004v-4.133h4.134v-2.004h-4.134v-4.134h-2.004zm-14.855 1.134c0.807 0.026 1.52 0.265 2.14 0.712 0.61 0.475 1.1 1.093 1.474 1.85 0.794 1.577 1.192 3.145 1.192 4.697 0 0.36-0.03 0.803-0.088 1.33a4.06 4.06 0 0 1 -0.643 1.54c-0.69 0.706-1.555 1.08-2.593 1.118-0.82 0-1.55-0.25-2.19-0.752-0.64-0.5-1.16-1.11-1.563-1.83-0.834-1.54-1.25-3.022-1.25-4.447a4.844 4.844 0 0 1 0.856 -2.927c0.708-0.835 1.595-1.265 2.663-1.29zm1.667 17.54c0.09 0 0.16 0.003 0.21 0.01 0.337 0 0.632 0.01 0.884 0.038 1.47 1.026 2.548 1.89 3.24 2.595 0.65 0.743 0.976 1.613 0.976 2.613 0 1.233-0.477 2.238-1.43 3.02-0.978 0.795-2.396 1.205-4.253 1.23-2.07-0.025-3.702-0.486-4.894-1.382-1.255-0.897-1.88-2.04-1.88-3.423 0-0.704 0.143-1.307 0.433-1.806a4.11 4.11 0 0 1 0.92 -1.194 5.237 5.237 0 0 1 1.11 -0.71c0.365-0.155 0.646-0.27 0.847-0.347a16.935 16.935 0 0 1 2.504 -0.56c0.62-0.056 1.065-0.085 1.333-0.085z"/>
</svg>
