<?xml version="1.0" encoding="UTF-8" standalone="no"?>
<svg
   xmlns:dc="http://purl.org/dc/elements/1.1/"
   xmlns:cc="http://creativecommons.org/ns#"
   xmlns:rdf="http://www.w3.org/1999/02/22-rdf-syntax-ns#"
   xmlns:svg="http://www.w3.org/2000/svg"
   xmlns="http://www.w3.org/2000/svg"
   xmlns:sodipodi="http://sodipodi.sourceforge.net/DTD/sodipodi-0.dtd"
   xmlns:inkscape="http://www.inkscape.org/namespaces/inkscape"
   height="32"
   width="32"
   version="1.1"
   id="svg4"
   sodipodi:docname="social-twitter.svg"
   inkscape:version="0.92.1 r">
  <metadata
     id="metadata10">
    <rdf:RDF>
      <cc:Work
         rdf:about="">
        <dc:format>image/svg+xml</dc:format>
        <dc:type
           rdf:resource="http://purl.org/dc/dcmitype/StillImage" />
        <dc:title></dc:title>
      </cc:Work>
    </rdf:RDF>
  </metadata>
  <defs
     id="defs8" />
  <sodipodi:namedview
     pagecolor="#ffffff"
     bordercolor="#666666"
     borderopacity="1"
     objecttolerance="10"
     gridtolerance="10"
     guidetolerance="10"
     inkscape:pageopacity="0"
     inkscape:pageshadow="2"
     inkscape:window-width="2560"
     inkscape:window-height="1377"
     id="namedview6"
     showgrid="false"
     inkscape:zoom="34.800781"
     inkscape:cx="16"
     inkscape:cy="16"
     inkscape:window-x="1680"
     inkscape:window-y="0"
     inkscape:window-maximized="1"
     inkscape:current-layer="svg4" />
  <path
     d="M21.612 4.62c.052-.003.106 0 .16 0 1.77 0 3.368.747 4.49 1.943 1.403-.276 2.72-.79 3.91-1.496a6.167 6.167 0 0 1-2.707 3.406A12.244 12.244 0 0 0 31 7.503a12.468 12.468 0 0 1-3.07 3.186c.01.263.017.53.017.797C27.947 19.62 21.757 29 10.434 29 6.958 29 3.724 27.98 1 26.233c.482.058.972.087 1.47.087 2.883 0 5.535-.984 7.64-2.635a6.162 6.162 0 0 1-5.748-4.276 6.107 6.107 0 0 0 2.78-.105 6.157 6.157 0 0 1-4.937-6.034v-.078c.83.46 1.78.738 2.79.77a6.15 6.15 0 0 1-2.74-5.12c0-1.13.304-2.19.834-3.097a17.476 17.476 0 0 0 12.686 6.43A6.155 6.155 0 0 1 21.61 4.62z"
     opacity=".5"
     id="path2"
     style="fill:#f2f2f2;fill-opacity:1;opacity:1" />
</svg>
