<svg xmlns:rdf="http://www.w3.org/1999/02/22-rdf-syntax-ns#" xmlns="http://www.w3.org/2000/svg" height="32" width="32" version="1.1" xmlns:cc="http://creativecommons.org/ns#" xmlns:dc="http://purl.org/dc/elements/1.1/">
 <path fill="#f2f2f2" d="m21.612 4.62c0.052-0.003 0.106 0 0.16 0 1.77 0 3.368 0.747 4.49 1.943 1.403-0.276 2.72-0.79 3.91-1.496a6.167 6.167 0 0 1 -2.707 3.406 12.244 12.244 0 0 0 3.535 -0.97 12.468 12.468 0 0 1 -3.07 3.186c0.01 0.263 0.017 0.53 0.017 0.797 0 8.134-6.19 17.514-17.513 17.514-3.476 0-6.71-1.02-9.434-2.767 0.482 0.058 0.972 0.087 1.47 0.087 2.883 0 5.535-0.984 7.64-2.635a6.162 6.162 0 0 1 -5.748 -4.276 6.107 6.107 0 0 0 2.78 -0.105 6.157 6.157 0 0 1 -4.937 -6.034v-0.078c0.83 0.46 1.78 0.738 2.79 0.77a6.15 6.15 0 0 1 -2.74 -5.12c0-1.13 0.304-2.19 0.834-3.097a17.476 17.476 0 0 0 12.686 6.43 6.155 6.155 0 0 1 5.835 -7.555z"/>
</svg>
